M48
; DRILL file {KiCad 8.0.8} date 2026-03-21T19:51:50-0400
; FORMAT={-:-/ absolute / metric / decimal}
; #@! TF.CreationDate,2026-03-21T19:51:50-04:00
; #@! TF.GenerationSoftware,Kicad,Pcbnew,8.0.8
; #@! TF.FileFunction,Plated,1,4,PTH
FMAT,2
METRIC
; #@! TA.AperFunction,Plated,PTH,ViaDrill
T1C0.300
; #@! TA.AperFunction,Plated,PTH,ComponentDrill
T2C1.000
%
G90
G05
T1
X35.6Y-29.6
X38.1Y-28.0
X39.2Y-31.0
X39.9Y-31.0
X39.9Y-33.7
X39.9Y-34.3
X41.4Y-34.9
X41.4Y-35.5
X41.7Y-36.3
X41.7Y-36.9
X41.7Y-37.5
X41.7Y-38.1
X41.7Y-39.7
X41.7Y-40.3
X41.7Y-40.9
X44.8Y-28.0
X44.8Y-30.2
X44.8Y-31.2
X44.8Y-32.2
X44.8Y-38.5
X45.4Y-38.5
X46.0Y-38.5
X46.6Y-38.5
X48.0Y-38.5
X48.6Y-33.4
X48.6Y-38.5
X49.2Y-38.5
X49.8Y-38.5
T2
X35.95Y-32.73
X35.95Y-35.27
X43.73Y-40.05
X46.27Y-40.05
X49.55Y-28.73
X49.55Y-31.27
M30
