G04 #@! TF.GenerationSoftware,KiCad,Pcbnew,8.0.8*
G04 #@! TF.CreationDate,2026-01-04T09:20:55-05:00*
G04 #@! TF.ProjectId,project-hw-60v-dcdc,70726f6a-6563-4742-9d68-772d3630762d,rev?*
G04 #@! TF.SameCoordinates,Original*
G04 #@! TF.FileFunction,Legend,Top*
G04 #@! TF.FilePolarity,Positive*
%FSLAX46Y46*%
G04 Gerber Fmt 4.6, Leading zero omitted, Abs format (unit mm)*
G04 Created by KiCad (PCBNEW 8.0.8) date 2026-01-04 09:20:55*
%MOMM*%
%LPD*%
G01*
G04 APERTURE LIST*
G04 Aperture macros list*
%AMRoundRect*
0 Rectangle with rounded corners*
0 $1 Rounding radius*
0 $2 $3 $4 $5 $6 $7 $8 $9 X,Y pos of 4 corners*
0 Add a 4 corners polygon primitive as box body*
4,1,4,$2,$3,$4,$5,$6,$7,$8,$9,$2,$3,0*
0 Add four circle primitives for the rounded corners*
1,1,$1+$1,$2,$3*
1,1,$1+$1,$4,$5*
1,1,$1+$1,$6,$7*
1,1,$1+$1,$8,$9*
0 Add four rect primitives between the rounded corners*
20,1,$1+$1,$2,$3,$4,$5,0*
20,1,$1+$1,$4,$5,$6,$7,0*
20,1,$1+$1,$6,$7,$8,$9,0*
20,1,$1+$1,$8,$9,$2,$3,0*%
G04 Aperture macros list end*
%ADD10C,0.100000*%
%ADD11C,0.120000*%
%ADD12RoundRect,0.250000X-1.100000X0.325000X-1.100000X-0.325000X1.100000X-0.325000X1.100000X0.325000X0*%
%ADD13RoundRect,0.225000X0.250000X-0.225000X0.250000X0.225000X-0.250000X0.225000X-0.250000X-0.225000X0*%
%ADD14RoundRect,0.150000X-0.375000X-0.150000X0.375000X-0.150000X0.375000X0.150000X-0.375000X0.150000X0*%
%ADD15RoundRect,0.480000X1.520000X-1.770000X1.520000X1.770000X-1.520000X1.770000X-1.520000X-1.770000X0*%
%ADD16C,1.700000*%
%ADD17RoundRect,0.125000X0.175000X-0.125000X0.175000X0.125000X-0.175000X0.125000X-0.175000X-0.125000X0*%
%ADD18RoundRect,0.200000X0.275000X-0.200000X0.275000X0.200000X-0.275000X0.200000X-0.275000X-0.200000X0*%
%ADD19RoundRect,0.475000X-0.475000X-2.075000X0.475000X-2.075000X0.475000X2.075000X-0.475000X2.075000X0*%
%ADD20RoundRect,0.200000X0.250000X0.200000X-0.250000X0.200000X-0.250000X-0.200000X0.250000X-0.200000X0*%
%ADD21RoundRect,0.200000X-0.200000X-0.275000X0.200000X-0.275000X0.200000X0.275000X-0.200000X0.275000X0*%
%ADD22RoundRect,0.225000X-0.250000X0.225000X-0.250000X-0.225000X0.250000X-0.225000X0.250000X0.225000X0*%
%ADD23RoundRect,0.200000X-0.275000X0.200000X-0.275000X-0.200000X0.275000X-0.200000X0.275000X0.200000X0*%
G04 APERTURE END LIST*
D10*
X44500000Y-36000000D02*
X42000000Y-36000000D01*
X50000000Y-36000000D02*
X52000000Y-36000000D01*
X42000000Y-36000000D02*
X42000000Y-36500000D01*
X52000000Y-36000000D02*
X52000000Y-36500000D01*
G36*
X45280635Y-35970505D02*
G01*
X45283855Y-36048027D01*
X45292670Y-36120816D01*
X45295289Y-36136468D01*
X45312780Y-36211031D01*
X45336808Y-36282904D01*
X45348046Y-36311224D01*
X45382631Y-36381358D01*
X45424473Y-36444116D01*
X45446231Y-36470593D01*
X45501458Y-36522090D01*
X45563815Y-36562756D01*
X45605233Y-36583433D01*
X45676738Y-36608672D01*
X45754737Y-36623434D01*
X45831280Y-36627763D01*
X45907774Y-36622869D01*
X45990343Y-36604786D01*
X46065725Y-36573381D01*
X46133918Y-36528651D01*
X46178227Y-36488545D01*
X46231331Y-36423937D01*
X46271392Y-36351932D01*
X46298410Y-36272529D01*
X46311187Y-36198580D01*
X46314515Y-36132805D01*
X46314515Y-36088475D01*
X45846301Y-36088475D01*
X45846301Y-35924344D01*
X46487805Y-35924344D01*
X46487805Y-36745000D01*
X46363241Y-36745000D01*
X46314515Y-36552658D01*
X46258300Y-36608729D01*
X46199385Y-36657324D01*
X46137767Y-36698443D01*
X46056945Y-36739328D01*
X45971901Y-36768531D01*
X45882635Y-36786053D01*
X45808183Y-36791660D01*
X45789148Y-36791894D01*
X45712836Y-36788356D01*
X45640152Y-36777743D01*
X45554402Y-36754527D01*
X45474322Y-36720256D01*
X45399914Y-36674929D01*
X45331176Y-36618547D01*
X45280268Y-36565481D01*
X45234330Y-36506811D01*
X45194516Y-36444008D01*
X45160828Y-36377072D01*
X45133265Y-36306004D01*
X45111826Y-36230802D01*
X45096514Y-36151466D01*
X45087326Y-36067998D01*
X45084263Y-35980397D01*
X45086942Y-35904680D01*
X45094979Y-35828654D01*
X45103314Y-35777798D01*
X45122342Y-35700071D01*
X45148112Y-35626469D01*
X45175122Y-35564574D01*
X45210670Y-35497648D01*
X45251371Y-35436089D01*
X45302093Y-35374572D01*
X45307013Y-35369302D01*
X45361803Y-35319621D01*
X45427255Y-35275449D01*
X45495277Y-35240406D01*
X45519870Y-35229717D01*
X45589090Y-35205354D01*
X45662661Y-35187951D01*
X45740582Y-35177510D01*
X45822854Y-35174030D01*
X45902996Y-35177026D01*
X45978558Y-35186015D01*
X46063189Y-35204713D01*
X46141224Y-35232040D01*
X46212665Y-35267996D01*
X46256629Y-35296762D01*
X46315804Y-35346328D01*
X46365834Y-35402979D01*
X46406720Y-35466713D01*
X46438460Y-35537532D01*
X46461056Y-35615434D01*
X46466556Y-35642976D01*
X46266154Y-35642976D01*
X46241476Y-35568153D01*
X46202888Y-35502777D01*
X46150389Y-35446849D01*
X46115212Y-35419860D01*
X46043802Y-35380367D01*
X45972882Y-35356112D01*
X45894956Y-35342070D01*
X45821022Y-35338161D01*
X45746808Y-35342400D01*
X45664033Y-35358681D01*
X45588109Y-35387171D01*
X45519038Y-35427872D01*
X45456819Y-35480783D01*
X45428279Y-35511817D01*
X45378103Y-35580743D01*
X45338308Y-35657550D01*
X45313076Y-35727578D01*
X45295053Y-35803080D01*
X45284239Y-35884056D01*
X45280635Y-35970505D01*
G37*
G36*
X47977808Y-35197477D02*
G01*
X47977808Y-36745000D01*
X47756158Y-36745000D01*
X46960781Y-35490568D01*
X46960781Y-36745000D01*
X46775034Y-36745000D01*
X46775034Y-35197477D01*
X46988258Y-35197477D01*
X47792062Y-36462533D01*
X47792062Y-35197477D01*
X47977808Y-35197477D01*
G37*
G36*
X48989291Y-35202432D02*
G01*
X49071712Y-35217298D01*
X49147944Y-35242074D01*
X49217986Y-35276760D01*
X49281838Y-35321357D01*
X49339501Y-35375865D01*
X49360833Y-35400443D01*
X49408856Y-35467868D01*
X49448739Y-35543289D01*
X49480483Y-35626707D01*
X49500018Y-35699198D01*
X49514343Y-35776807D01*
X49523459Y-35859534D01*
X49527366Y-35947378D01*
X49527529Y-35970139D01*
X49524907Y-36059280D01*
X49517042Y-36143338D01*
X49503933Y-36222312D01*
X49485580Y-36296203D01*
X49455266Y-36381419D01*
X49416758Y-36458692D01*
X49370058Y-36528022D01*
X49359734Y-36540935D01*
X49304284Y-36599723D01*
X49242805Y-36648547D01*
X49175298Y-36687407D01*
X49101762Y-36716303D01*
X49022198Y-36735235D01*
X48936605Y-36744202D01*
X48900680Y-36745000D01*
X48307903Y-36745000D01*
X48307903Y-36580868D01*
X48503907Y-36580868D01*
X48866974Y-36580868D01*
X48948565Y-36575407D01*
X49022427Y-36559024D01*
X49098833Y-36526105D01*
X49164720Y-36478321D01*
X49212822Y-36425530D01*
X49253038Y-36362268D01*
X49284933Y-36288985D01*
X49308508Y-36205681D01*
X49321797Y-36128607D01*
X49329309Y-36044574D01*
X49331158Y-35972337D01*
X49328269Y-35882104D01*
X49319602Y-35798937D01*
X49305156Y-35722836D01*
X49280195Y-35640842D01*
X49246913Y-35569023D01*
X49212822Y-35516946D01*
X49155951Y-35456419D01*
X49088562Y-35410758D01*
X49010654Y-35379963D01*
X48935503Y-35365400D01*
X48866974Y-35361608D01*
X48503907Y-35361608D01*
X48503907Y-36580868D01*
X48307903Y-36580868D01*
X48307903Y-35197477D01*
X48900680Y-35197477D01*
X48989291Y-35202432D01*
G37*
G36*
X55795743Y-36245000D02*
G01*
X55584717Y-36245000D01*
X55031507Y-34697477D01*
X55242533Y-34697477D01*
X55694260Y-36007229D01*
X56120708Y-34697477D01*
X56329535Y-34697477D01*
X55795743Y-36245000D01*
G37*
G36*
X56953763Y-35577757D02*
G01*
X57036329Y-35596363D01*
X57110761Y-35628677D01*
X57177059Y-35674702D01*
X57219434Y-35715969D01*
X57269683Y-35783021D01*
X57307590Y-35859154D01*
X57330259Y-35931638D01*
X57343860Y-36010794D01*
X57348394Y-36096622D01*
X57343886Y-36176040D01*
X57330362Y-36250255D01*
X57303189Y-36330261D01*
X57263744Y-36403186D01*
X57220167Y-36460055D01*
X57159965Y-36516300D01*
X57091558Y-36558730D01*
X57014948Y-36587346D01*
X56942751Y-36600879D01*
X56877982Y-36604403D01*
X56801707Y-36599328D01*
X56719947Y-36580580D01*
X56645971Y-36548017D01*
X56579778Y-36501640D01*
X56537264Y-36460055D01*
X56486729Y-36392941D01*
X56448606Y-36317903D01*
X56425809Y-36247278D01*
X56412130Y-36170831D01*
X56407571Y-36088562D01*
X56531768Y-36088562D01*
X56536344Y-36163753D01*
X56552779Y-36241485D01*
X56581166Y-36310470D01*
X56627389Y-36377623D01*
X56685871Y-36430576D01*
X56753742Y-36466199D01*
X56831003Y-36484492D01*
X56877982Y-36487166D01*
X56951759Y-36480366D01*
X57025890Y-36456457D01*
X57090631Y-36415335D01*
X57128576Y-36378356D01*
X57174799Y-36311728D01*
X57203186Y-36243744D01*
X57219621Y-36167518D01*
X57224197Y-36094057D01*
X57219656Y-36017261D01*
X57203347Y-35938081D01*
X57175177Y-35868059D01*
X57129308Y-35800233D01*
X57070949Y-35746926D01*
X57002621Y-35711065D01*
X56924323Y-35692650D01*
X56876517Y-35689958D01*
X56802786Y-35696804D01*
X56728816Y-35720874D01*
X56664352Y-35762273D01*
X56626657Y-35799501D01*
X56580788Y-35866654D01*
X56552618Y-35935639D01*
X56536309Y-36013371D01*
X56531768Y-36088562D01*
X56407571Y-36088562D01*
X56412117Y-36006293D01*
X56425757Y-35929846D01*
X56448490Y-35859221D01*
X56486505Y-35784183D01*
X56536897Y-35717069D01*
X56597477Y-35660824D01*
X56665736Y-35618394D01*
X56741673Y-35589778D01*
X56825289Y-35574976D01*
X56876517Y-35572721D01*
X56953763Y-35577757D01*
G37*
G36*
X58138642Y-35596168D02*
G01*
X58263206Y-35596168D01*
X58263206Y-36282735D01*
X58255120Y-36360826D01*
X58227171Y-36436446D01*
X58179257Y-36500331D01*
X58160990Y-36517208D01*
X58098046Y-36559358D01*
X58024205Y-36587713D01*
X57949420Y-36601337D01*
X57887682Y-36604403D01*
X57805479Y-36598999D01*
X57732527Y-36582787D01*
X57661513Y-36551631D01*
X57614375Y-36517941D01*
X57561824Y-36457820D01*
X57528737Y-36385535D01*
X57515599Y-36310077D01*
X57514724Y-36282735D01*
X57514724Y-35596168D01*
X57638921Y-35596168D01*
X57638921Y-36276873D01*
X57650046Y-36353658D01*
X57686912Y-36417011D01*
X57706332Y-36434776D01*
X57774152Y-36470590D01*
X57846349Y-36485324D01*
X57887316Y-36487166D01*
X57962151Y-36480586D01*
X58035075Y-36455842D01*
X58071597Y-36431479D01*
X58117429Y-36374297D01*
X58137594Y-36300847D01*
X58138642Y-36276873D01*
X58138642Y-35596168D01*
G37*
G36*
X58860013Y-35713405D02*
G01*
X58860013Y-36580956D01*
X58735816Y-36580956D01*
X58735816Y-35713405D01*
X58414881Y-35713405D01*
X58414881Y-35596168D01*
X59179483Y-35596168D01*
X59179483Y-35713405D01*
X58860013Y-35713405D01*
G37*
G36*
X36295743Y-36245000D02*
G01*
X36084717Y-36245000D01*
X35531507Y-34697477D01*
X35742533Y-34697477D01*
X36194260Y-36007229D01*
X36620708Y-34697477D01*
X36829535Y-34697477D01*
X36295743Y-36245000D01*
G37*
G36*
X37113467Y-35596168D02*
G01*
X37113467Y-36580956D01*
X36987804Y-36580956D01*
X36987804Y-35596168D01*
X37113467Y-35596168D01*
G37*
G36*
X38096423Y-35596168D02*
G01*
X38096423Y-36580956D01*
X37956105Y-36580956D01*
X37452354Y-35782648D01*
X37452354Y-36580956D01*
X37334751Y-36580956D01*
X37334751Y-35596168D01*
X37469573Y-35596168D01*
X37978820Y-36401437D01*
X37978820Y-35596168D01*
X38096423Y-35596168D01*
G37*
D11*
X50640000Y-31788748D02*
X50640000Y-33211252D01*
X53360000Y-31788748D02*
X53360000Y-33211252D01*
X48990000Y-25640580D02*
X48990000Y-25359420D01*
X50010000Y-25640580D02*
X50010000Y-25359420D01*
X42140000Y-31288748D02*
X42140000Y-32711252D01*
X44860000Y-31288748D02*
X44860000Y-32711252D01*
X48000000Y-27440000D02*
X47200000Y-27440000D01*
X48000000Y-27440000D02*
X48800000Y-27440000D01*
X48000000Y-30560000D02*
X47200000Y-30560000D01*
X48000000Y-30560000D02*
X48800000Y-30560000D01*
X46700000Y-27490000D02*
X46460000Y-27160000D01*
X46940000Y-27160000D01*
X46700000Y-27490000D01*
G36*
X46700000Y-27490000D02*
G01*
X46460000Y-27160000D01*
X46940000Y-27160000D01*
X46700000Y-27490000D01*
G37*
X54140000Y-31788748D02*
X54140000Y-33211252D01*
X56860000Y-31788748D02*
X56860000Y-33211252D01*
X39400000Y-25700000D02*
X39400000Y-23740000D01*
X40600000Y-23740000D02*
X39400000Y-23740000D01*
X40600000Y-25700000D02*
X40600000Y-23740000D01*
X45977500Y-25737258D02*
X45977500Y-25262742D01*
X47022500Y-25737258D02*
X47022500Y-25262742D01*
X50900000Y-23400000D02*
X50900000Y-23800000D01*
X50900000Y-23400000D02*
X57100000Y-23400000D01*
X50900000Y-29600000D02*
X50900000Y-29200000D01*
X50900000Y-29600000D02*
X57100000Y-29600000D01*
X57100000Y-23400000D02*
X57100000Y-23800000D01*
X57100000Y-29600000D02*
X57100000Y-29200000D01*
X37000000Y-23440000D02*
X36200000Y-23440000D01*
X37000000Y-23440000D02*
X37800000Y-23440000D01*
X37000000Y-26560000D02*
X36200000Y-26560000D01*
X37000000Y-26560000D02*
X37800000Y-26560000D01*
X38540000Y-26840000D02*
X38060000Y-26840000D01*
X38300000Y-26510000D01*
X38540000Y-26840000D01*
G36*
X38540000Y-26840000D02*
G01*
X38060000Y-26840000D01*
X38300000Y-26510000D01*
X38540000Y-26840000D01*
G37*
X38762742Y-27477500D02*
X39237258Y-27477500D01*
X38762742Y-28522500D02*
X39237258Y-28522500D01*
X45990000Y-32359420D02*
X45990000Y-32640580D01*
X47010000Y-32359420D02*
X47010000Y-32640580D01*
X38640000Y-31288748D02*
X38640000Y-32711252D01*
X41360000Y-31288748D02*
X41360000Y-32711252D01*
X44477500Y-25262742D02*
X44477500Y-25737258D01*
X45522500Y-25262742D02*
X45522500Y-25737258D01*
%LPC*%
D12*
X52000000Y-31025000D03*
X52000000Y-33975000D03*
D13*
X49500000Y-26275000D03*
X49500000Y-24725000D03*
D12*
X43500000Y-30525000D03*
X43500000Y-33475000D03*
D14*
X46700000Y-28050000D03*
X46700000Y-29000000D03*
X46700000Y-29950000D03*
X49300000Y-29950000D03*
X49300000Y-29000000D03*
X49300000Y-28050000D03*
D12*
X55500000Y-31025000D03*
X55500000Y-33975000D03*
D15*
X42000000Y-39250000D03*
D16*
X40730000Y-37730000D03*
X43270000Y-37730000D03*
D15*
X37000000Y-39250000D03*
D16*
X35730000Y-37730000D03*
X38270000Y-37730000D03*
D15*
X52000000Y-39250000D03*
D16*
X50730000Y-37730000D03*
X53270000Y-37730000D03*
D17*
X40000000Y-24300000D03*
X40000000Y-25700000D03*
D18*
X46500000Y-26325000D03*
X46500000Y-24675000D03*
D19*
X51900000Y-26500000D03*
X56100000Y-26500000D03*
D20*
X38100000Y-25950000D03*
X38100000Y-24050000D03*
X35900000Y-25000000D03*
D21*
X38175000Y-28000000D03*
X39825000Y-28000000D03*
D22*
X46500000Y-31725000D03*
X46500000Y-33275000D03*
D15*
X57000000Y-39250000D03*
D16*
X55730000Y-37730000D03*
X58270000Y-37730000D03*
D12*
X40000000Y-30525000D03*
X40000000Y-33475000D03*
D23*
X45000000Y-24675000D03*
X45000000Y-26325000D03*
%LPD*%
M02*
