G04 #@! TF.GenerationSoftware,KiCad,Pcbnew,8.0.8*
G04 #@! TF.CreationDate,2026-03-21T19:51:26-04:00*
G04 #@! TF.ProjectId,project-hw-60v-dcdc,70726f6a-6563-4742-9d68-772d3630762d,rev?*
G04 #@! TF.SameCoordinates,Original*
G04 #@! TF.FileFunction,Copper,L3,Inr*
G04 #@! TF.FilePolarity,Positive*
%FSLAX46Y46*%
G04 Gerber Fmt 4.6, Leading zero omitted, Abs format (unit mm)*
G04 Created by KiCad (PCBNEW 8.0.8) date 2026-03-21 19:51:26*
%MOMM*%
%LPD*%
G01*
G04 APERTURE LIST*
G04 #@! TA.AperFunction,ComponentPad*
%ADD10C,1.700000*%
G04 #@! TD*
G04 #@! TA.AperFunction,ViaPad*
%ADD11C,0.600000*%
G04 #@! TD*
G04 APERTURE END LIST*
D10*
X49550000Y-31270000D03*
X49550000Y-28730000D03*
X43730000Y-40050000D03*
X46270000Y-40050000D03*
X35950000Y-32730000D03*
X35950000Y-35270000D03*
D11*
X44800000Y-28000000D03*
X44800000Y-32200000D03*
X44800000Y-31200000D03*
X44800000Y-30200000D03*
X39900000Y-31000000D03*
X39200000Y-31000000D03*
X38100000Y-28000000D03*
X48000000Y-38500000D03*
X49800000Y-38500000D03*
X48600000Y-38500000D03*
X49200000Y-38500000D03*
X46600000Y-38500000D03*
X46000000Y-38500000D03*
X44800000Y-38500000D03*
X45400000Y-38500000D03*
X41700000Y-40900000D03*
X41700000Y-40300000D03*
X41700000Y-39700000D03*
X41700000Y-36900000D03*
X41700000Y-38100000D03*
X41400000Y-35500000D03*
X41400000Y-34900000D03*
X39900000Y-34300000D03*
X39900000Y-33700000D03*
X48600000Y-33400000D03*
X35600000Y-29600000D03*
X41700000Y-37500000D03*
X41700000Y-36300000D03*
G04 #@! TA.AperFunction,Conductor*
G36*
X48901063Y-27520462D02*
G01*
X48955601Y-27575000D01*
X48975563Y-27649500D01*
X48955601Y-27724000D01*
X48905001Y-27776182D01*
X48853702Y-27807944D01*
X48853697Y-27807948D01*
X48696127Y-27951593D01*
X48567636Y-28121740D01*
X48472594Y-28312612D01*
X48472593Y-28312614D01*
X48414243Y-28517694D01*
X48394571Y-28729995D01*
X48394571Y-28730004D01*
X48414243Y-28942305D01*
X48472593Y-29147385D01*
X48472594Y-29147387D01*
X48567636Y-29338259D01*
X48696127Y-29508406D01*
X48853697Y-29652051D01*
X48853698Y-29652052D01*
X49034977Y-29764296D01*
X49034983Y-29764299D01*
X49122189Y-29798082D01*
X49233802Y-29841321D01*
X49299152Y-29853537D01*
X49368716Y-29886849D01*
X49412303Y-29950480D01*
X49418236Y-30027379D01*
X49384924Y-30096943D01*
X49321293Y-30140530D01*
X49299153Y-30146462D01*
X49233802Y-30158679D01*
X49233795Y-30158681D01*
X49034983Y-30235700D01*
X49034977Y-30235703D01*
X48853698Y-30347947D01*
X48853697Y-30347948D01*
X48696127Y-30491593D01*
X48567636Y-30661740D01*
X48472594Y-30852612D01*
X48472593Y-30852614D01*
X48414243Y-31057694D01*
X48394571Y-31269995D01*
X48394571Y-31270004D01*
X48414243Y-31482305D01*
X48472593Y-31687385D01*
X48472594Y-31687387D01*
X48567636Y-31878259D01*
X48696127Y-32048406D01*
X48696128Y-32048407D01*
X48776576Y-32121745D01*
X48853697Y-32192051D01*
X48853698Y-32192052D01*
X49034977Y-32304296D01*
X49034983Y-32304299D01*
X49056442Y-32312612D01*
X49233802Y-32381321D01*
X49443390Y-32420500D01*
X49443393Y-32420500D01*
X49656607Y-32420500D01*
X49656610Y-32420500D01*
X49866198Y-32381321D01*
X50065019Y-32304298D01*
X50246302Y-32192052D01*
X50403872Y-32048407D01*
X50532366Y-31878255D01*
X50627405Y-31687389D01*
X50685756Y-31482310D01*
X50702136Y-31305542D01*
X50714291Y-31272669D01*
X50702136Y-31234457D01*
X50685756Y-31057694D01*
X50685756Y-31057690D01*
X50627405Y-30852611D01*
X50532366Y-30661745D01*
X50532364Y-30661743D01*
X50532363Y-30661740D01*
X50403872Y-30491593D01*
X50246302Y-30347948D01*
X50246301Y-30347947D01*
X50065022Y-30235703D01*
X50065016Y-30235700D01*
X49866204Y-30158681D01*
X49866200Y-30158680D01*
X49866198Y-30158679D01*
X49800846Y-30146462D01*
X49731284Y-30113151D01*
X49687696Y-30049521D01*
X49681763Y-29972621D01*
X49715075Y-29903058D01*
X49778705Y-29859470D01*
X49800843Y-29853537D01*
X49866198Y-29841321D01*
X50065019Y-29764298D01*
X50246302Y-29652052D01*
X50403872Y-29508407D01*
X50532366Y-29338255D01*
X50627405Y-29147389D01*
X50685756Y-28942310D01*
X50702136Y-28765542D01*
X50714291Y-28732669D01*
X50702136Y-28694457D01*
X50685756Y-28517694D01*
X50685756Y-28517690D01*
X50627405Y-28312611D01*
X50532366Y-28121745D01*
X50532364Y-28121743D01*
X50532363Y-28121740D01*
X50403872Y-27951593D01*
X50246302Y-27807948D01*
X50246297Y-27807944D01*
X50194999Y-27776182D01*
X50142166Y-27719991D01*
X50124508Y-27644911D01*
X50146755Y-27571062D01*
X50202946Y-27518229D01*
X50273437Y-27500500D01*
X50434108Y-27500500D01*
X50491633Y-27500500D01*
X50508315Y-27501436D01*
X50594465Y-27511144D01*
X50626993Y-27518568D01*
X50700878Y-27544421D01*
X50730939Y-27558898D01*
X50797217Y-27600543D01*
X50823304Y-27621346D01*
X50878653Y-27676695D01*
X50899456Y-27702782D01*
X50941101Y-27769060D01*
X50955578Y-27799121D01*
X50981431Y-27873006D01*
X50988855Y-27905532D01*
X50998563Y-27991682D01*
X50999500Y-28008367D01*
X50999500Y-28680709D01*
X50987620Y-28725045D01*
X50999500Y-28779290D01*
X50999500Y-31220709D01*
X50987620Y-31265045D01*
X50999500Y-31319290D01*
X50999500Y-40991632D01*
X50998563Y-41008317D01*
X50988855Y-41094467D01*
X50981431Y-41126993D01*
X50955578Y-41200878D01*
X50941101Y-41230939D01*
X50899456Y-41297217D01*
X50878653Y-41323304D01*
X50823304Y-41378653D01*
X50797217Y-41399456D01*
X50730939Y-41441101D01*
X50700878Y-41455578D01*
X50626993Y-41481431D01*
X50594467Y-41488855D01*
X50531435Y-41495957D01*
X50508313Y-41498563D01*
X50491633Y-41499500D01*
X47025782Y-41499500D01*
X46951282Y-41479538D01*
X46896744Y-41425000D01*
X46876782Y-41350500D01*
X46896744Y-41276000D01*
X46943552Y-41229191D01*
X46942250Y-41227332D01*
X47031373Y-41164926D01*
X46399409Y-40532962D01*
X46462993Y-40515925D01*
X46577007Y-40450099D01*
X46670099Y-40357007D01*
X46735925Y-40242993D01*
X46752962Y-40179408D01*
X47384926Y-40811372D01*
X47443595Y-40727586D01*
X47443598Y-40727580D01*
X47543430Y-40513491D01*
X47543431Y-40513489D01*
X47604568Y-40285321D01*
X47625157Y-40050000D01*
X47625157Y-40049999D01*
X47604568Y-39814678D01*
X47543431Y-39586512D01*
X47443597Y-39372418D01*
X47384925Y-39288626D01*
X46752962Y-39920589D01*
X46735925Y-39857007D01*
X46670099Y-39742993D01*
X46577007Y-39649901D01*
X46462993Y-39584075D01*
X46399407Y-39567037D01*
X47031372Y-38935073D01*
X46947578Y-38876399D01*
X46947573Y-38876396D01*
X46733491Y-38776569D01*
X46733489Y-38776568D01*
X46505321Y-38715431D01*
X46505322Y-38715431D01*
X46270001Y-38694843D01*
X46269999Y-38694843D01*
X46034678Y-38715431D01*
X45806510Y-38776568D01*
X45806508Y-38776569D01*
X45592424Y-38876398D01*
X45508626Y-38935073D01*
X46140590Y-39567037D01*
X46077007Y-39584075D01*
X45962993Y-39649901D01*
X45869901Y-39742993D01*
X45804075Y-39857007D01*
X45787037Y-39920590D01*
X45155072Y-39288626D01*
X45122053Y-39335783D01*
X45062970Y-39385360D01*
X44987014Y-39398754D01*
X44914537Y-39372375D01*
X44877945Y-39335783D01*
X44844925Y-39288626D01*
X44212962Y-39920589D01*
X44195925Y-39857007D01*
X44130099Y-39742993D01*
X44037007Y-39649901D01*
X43922993Y-39584075D01*
X43859407Y-39567037D01*
X44491372Y-38935073D01*
X44407578Y-38876399D01*
X44407573Y-38876396D01*
X44193491Y-38776569D01*
X44193489Y-38776568D01*
X43965321Y-38715431D01*
X43965322Y-38715431D01*
X43730001Y-38694843D01*
X43729999Y-38694843D01*
X43494678Y-38715431D01*
X43266510Y-38776568D01*
X43266508Y-38776569D01*
X43052424Y-38876398D01*
X42968626Y-38935073D01*
X43600590Y-39567037D01*
X43537007Y-39584075D01*
X43422993Y-39649901D01*
X43329901Y-39742993D01*
X43264075Y-39857007D01*
X43247037Y-39920590D01*
X42615073Y-39288626D01*
X42556398Y-39372424D01*
X42456569Y-39586508D01*
X42456568Y-39586510D01*
X42395431Y-39814678D01*
X42374843Y-40049999D01*
X42374843Y-40050000D01*
X42395431Y-40285321D01*
X42456568Y-40513489D01*
X42456569Y-40513491D01*
X42556396Y-40727573D01*
X42556399Y-40727578D01*
X42615073Y-40811372D01*
X43247037Y-40179408D01*
X43264075Y-40242993D01*
X43329901Y-40357007D01*
X43422993Y-40450099D01*
X43537007Y-40515925D01*
X43600590Y-40532962D01*
X42968625Y-41164926D01*
X43057750Y-41227331D01*
X43056448Y-41229190D01*
X43103260Y-41276007D01*
X43123218Y-41350508D01*
X43103252Y-41425007D01*
X43048711Y-41479542D01*
X42974218Y-41499500D01*
X35008367Y-41499500D01*
X34991686Y-41498563D01*
X34965413Y-41495602D01*
X34905532Y-41488855D01*
X34873006Y-41481431D01*
X34799121Y-41455578D01*
X34769060Y-41441101D01*
X34702782Y-41399456D01*
X34676695Y-41378653D01*
X34621346Y-41323304D01*
X34600543Y-41297217D01*
X34558898Y-41230939D01*
X34544421Y-41200878D01*
X34518568Y-41126993D01*
X34511144Y-41094465D01*
X34501437Y-41008315D01*
X34500500Y-40991632D01*
X34500500Y-35319290D01*
X34512379Y-35274953D01*
X34500500Y-35220709D01*
X34500500Y-32779290D01*
X34512379Y-32734953D01*
X34510709Y-32727329D01*
X34785708Y-32727329D01*
X34797864Y-32765542D01*
X34814243Y-32942305D01*
X34814243Y-32942307D01*
X34814244Y-32942310D01*
X34833441Y-33009782D01*
X34872593Y-33147385D01*
X34872594Y-33147387D01*
X34967636Y-33338259D01*
X35096127Y-33508406D01*
X35253697Y-33652051D01*
X35253698Y-33652052D01*
X35434977Y-33764296D01*
X35434983Y-33764299D01*
X35522189Y-33798082D01*
X35633802Y-33841321D01*
X35699152Y-33853537D01*
X35768716Y-33886849D01*
X35812303Y-33950480D01*
X35818236Y-34027379D01*
X35784924Y-34096943D01*
X35721293Y-34140530D01*
X35699153Y-34146462D01*
X35633802Y-34158679D01*
X35633795Y-34158681D01*
X35434983Y-34235700D01*
X35434977Y-34235703D01*
X35253698Y-34347947D01*
X35253697Y-34347948D01*
X35096127Y-34491593D01*
X34967636Y-34661740D01*
X34872594Y-34852612D01*
X34872593Y-34852614D01*
X34814243Y-35057694D01*
X34797864Y-35234457D01*
X34785708Y-35267329D01*
X34797864Y-35305542D01*
X34814243Y-35482305D01*
X34872593Y-35687385D01*
X34872594Y-35687387D01*
X34967636Y-35878259D01*
X35096127Y-36048406D01*
X35253697Y-36192051D01*
X35253698Y-36192052D01*
X35434977Y-36304296D01*
X35434983Y-36304299D01*
X35522189Y-36338082D01*
X35633802Y-36381321D01*
X35843390Y-36420500D01*
X35843393Y-36420500D01*
X36056607Y-36420500D01*
X36056610Y-36420500D01*
X36266198Y-36381321D01*
X36465019Y-36304298D01*
X36646302Y-36192052D01*
X36803872Y-36048407D01*
X36932366Y-35878255D01*
X37027405Y-35687389D01*
X37085756Y-35482310D01*
X37105429Y-35270000D01*
X37085756Y-35057690D01*
X37027405Y-34852611D01*
X36932366Y-34661745D01*
X36932364Y-34661743D01*
X36932363Y-34661740D01*
X36803872Y-34491593D01*
X36646302Y-34347948D01*
X36646301Y-34347947D01*
X36465022Y-34235703D01*
X36465016Y-34235700D01*
X36266204Y-34158681D01*
X36266200Y-34158680D01*
X36266198Y-34158679D01*
X36200846Y-34146462D01*
X36131284Y-34113151D01*
X36087696Y-34049521D01*
X36081763Y-33972621D01*
X36115075Y-33903058D01*
X36178705Y-33859470D01*
X36200843Y-33853537D01*
X36266198Y-33841321D01*
X36465019Y-33764298D01*
X36646302Y-33652052D01*
X36803872Y-33508407D01*
X36885740Y-33399997D01*
X47994318Y-33399997D01*
X47994318Y-33400002D01*
X48014954Y-33556757D01*
X48075463Y-33702840D01*
X48075464Y-33702841D01*
X48171718Y-33828282D01*
X48297159Y-33924536D01*
X48443238Y-33985044D01*
X48443241Y-33985044D01*
X48443243Y-33985045D01*
X48443240Y-33985045D01*
X48599997Y-34005682D01*
X48600000Y-34005682D01*
X48600003Y-34005682D01*
X48756757Y-33985045D01*
X48756758Y-33985044D01*
X48756762Y-33985044D01*
X48902841Y-33924536D01*
X49028282Y-33828282D01*
X49124536Y-33702841D01*
X49185044Y-33556762D01*
X49205682Y-33400000D01*
X49197554Y-33338259D01*
X49185045Y-33243242D01*
X49185044Y-33243240D01*
X49185044Y-33243238D01*
X49124536Y-33097159D01*
X49028282Y-32971718D01*
X48902841Y-32875464D01*
X48902840Y-32875463D01*
X48822944Y-32842369D01*
X48756762Y-32814956D01*
X48756760Y-32814955D01*
X48756756Y-32814954D01*
X48756759Y-32814954D01*
X48600003Y-32794318D01*
X48599997Y-32794318D01*
X48443242Y-32814954D01*
X48297159Y-32875463D01*
X48171718Y-32971717D01*
X48171717Y-32971718D01*
X48075463Y-33097159D01*
X48014954Y-33243242D01*
X47994318Y-33399997D01*
X36885740Y-33399997D01*
X36932366Y-33338255D01*
X37027405Y-33147389D01*
X37085756Y-32942310D01*
X37105429Y-32730000D01*
X37085756Y-32517690D01*
X37027405Y-32312611D01*
X36932366Y-32121745D01*
X36932364Y-32121743D01*
X36932363Y-32121740D01*
X36803872Y-31951593D01*
X36646302Y-31807948D01*
X36646301Y-31807947D01*
X36465022Y-31695703D01*
X36465016Y-31695700D01*
X36266204Y-31618681D01*
X36266200Y-31618680D01*
X36266198Y-31618679D01*
X36224280Y-31610843D01*
X36056614Y-31579500D01*
X36056610Y-31579500D01*
X35843390Y-31579500D01*
X35843385Y-31579500D01*
X35633802Y-31618679D01*
X35633795Y-31618681D01*
X35434983Y-31695700D01*
X35434977Y-31695703D01*
X35253698Y-31807947D01*
X35253697Y-31807948D01*
X35096127Y-31951593D01*
X34967636Y-32121740D01*
X34872594Y-32312612D01*
X34872593Y-32312614D01*
X34814243Y-32517694D01*
X34797864Y-32694457D01*
X34785708Y-32727329D01*
X34510709Y-32727329D01*
X34500500Y-32680709D01*
X34500500Y-29599997D01*
X34994318Y-29599997D01*
X34994318Y-29600002D01*
X35014954Y-29756757D01*
X35075463Y-29902840D01*
X35112019Y-29950480D01*
X35171718Y-30028282D01*
X35297159Y-30124536D01*
X35443238Y-30185044D01*
X35443241Y-30185044D01*
X35443243Y-30185045D01*
X35443240Y-30185045D01*
X35599997Y-30205682D01*
X35600000Y-30205682D01*
X35600003Y-30205682D01*
X35756757Y-30185045D01*
X35756758Y-30185044D01*
X35756762Y-30185044D01*
X35902841Y-30124536D01*
X36028282Y-30028282D01*
X36124536Y-29902841D01*
X36185044Y-29756762D01*
X36198830Y-29652052D01*
X36205682Y-29600002D01*
X36205682Y-29599997D01*
X36185045Y-29443242D01*
X36185044Y-29443240D01*
X36185044Y-29443238D01*
X36124536Y-29297159D01*
X36028282Y-29171718D01*
X35902841Y-29075464D01*
X35902840Y-29075463D01*
X35822944Y-29042369D01*
X35756762Y-29014956D01*
X35756760Y-29014955D01*
X35756756Y-29014954D01*
X35756759Y-29014954D01*
X35600003Y-28994318D01*
X35599997Y-28994318D01*
X35443242Y-29014954D01*
X35297159Y-29075463D01*
X35171718Y-29171717D01*
X35171717Y-29171718D01*
X35075463Y-29297159D01*
X35014954Y-29443242D01*
X34994318Y-29599997D01*
X34500500Y-29599997D01*
X34500500Y-28008367D01*
X34501437Y-27991684D01*
X34505954Y-27951593D01*
X34511144Y-27905532D01*
X34518568Y-27873006D01*
X34544422Y-27799118D01*
X34558898Y-27769060D01*
X34600543Y-27702782D01*
X34621342Y-27676699D01*
X34676699Y-27621342D01*
X34702782Y-27600543D01*
X34769060Y-27558898D01*
X34799118Y-27544422D01*
X34873008Y-27518567D01*
X34905532Y-27511144D01*
X34991684Y-27501436D01*
X35008367Y-27500500D01*
X35065892Y-27500500D01*
X48826563Y-27500500D01*
X48901063Y-27520462D01*
G37*
G04 #@! TD.AperFunction*
G04 #@! TA.AperFunction,Conductor*
G36*
X45804075Y-40242993D02*
G01*
X45869901Y-40357007D01*
X45962993Y-40450099D01*
X46077007Y-40515925D01*
X46140590Y-40532962D01*
X45508625Y-41164926D01*
X45597750Y-41227331D01*
X45596448Y-41229190D01*
X45643260Y-41276007D01*
X45663218Y-41350508D01*
X45643252Y-41425007D01*
X45588711Y-41479542D01*
X45514218Y-41499500D01*
X44485782Y-41499500D01*
X44411282Y-41479538D01*
X44356744Y-41425000D01*
X44336782Y-41350500D01*
X44356744Y-41276000D01*
X44403552Y-41229191D01*
X44402250Y-41227332D01*
X44491373Y-41164926D01*
X43859409Y-40532962D01*
X43922993Y-40515925D01*
X44037007Y-40450099D01*
X44130099Y-40357007D01*
X44195925Y-40242993D01*
X44212962Y-40179408D01*
X44844926Y-40811372D01*
X44877945Y-40764216D01*
X44937028Y-40714638D01*
X45012985Y-40701245D01*
X45085461Y-40727624D01*
X45122053Y-40764215D01*
X45155073Y-40811372D01*
X45787037Y-40179408D01*
X45804075Y-40242993D01*
G37*
G04 #@! TD.AperFunction*
M02*
