G04 #@! TF.GenerationSoftware,KiCad,Pcbnew,8.0.8*
G04 #@! TF.CreationDate,2026-03-21T19:51:26-04:00*
G04 #@! TF.ProjectId,project-hw-60v-dcdc,70726f6a-6563-4742-9d68-772d3630762d,rev?*
G04 #@! TF.SameCoordinates,Original*
G04 #@! TF.FileFunction,Copper,L1,Top*
G04 #@! TF.FilePolarity,Positive*
%FSLAX46Y46*%
G04 Gerber Fmt 4.6, Leading zero omitted, Abs format (unit mm)*
G04 Created by KiCad (PCBNEW 8.0.8) date 2026-03-21 19:51:26*
%MOMM*%
%LPD*%
G01*
G04 APERTURE LIST*
G04 Aperture macros list*
%AMRoundRect*
0 Rectangle with rounded corners*
0 $1 Rounding radius*
0 $2 $3 $4 $5 $6 $7 $8 $9 X,Y pos of 4 corners*
0 Add a 4 corners polygon primitive as box body*
4,1,4,$2,$3,$4,$5,$6,$7,$8,$9,$2,$3,0*
0 Add four circle primitives for the rounded corners*
1,1,$1+$1,$2,$3*
1,1,$1+$1,$4,$5*
1,1,$1+$1,$6,$7*
1,1,$1+$1,$8,$9*
0 Add four rect primitives between the rounded corners*
20,1,$1+$1,$2,$3,$4,$5,0*
20,1,$1+$1,$4,$5,$6,$7,0*
20,1,$1+$1,$6,$7,$8,$9,0*
20,1,$1+$1,$8,$9,$2,$3,0*%
G04 Aperture macros list end*
G04 #@! TA.AperFunction,SMDPad,CuDef*
%ADD10RoundRect,0.240000X0.760000X1.760000X-0.760000X1.760000X-0.760000X-1.760000X0.760000X-1.760000X0*%
G04 #@! TD*
G04 #@! TA.AperFunction,ComponentPad*
%ADD11C,1.700000*%
G04 #@! TD*
G04 #@! TA.AperFunction,SMDPad,CuDef*
%ADD12RoundRect,0.240000X1.760000X-0.760000X1.760000X0.760000X-1.760000X0.760000X-1.760000X-0.760000X0*%
G04 #@! TD*
G04 #@! TA.AperFunction,SMDPad,CuDef*
%ADD13RoundRect,0.240000X-0.760000X-1.760000X0.760000X-1.760000X0.760000X1.760000X-0.760000X1.760000X0*%
G04 #@! TD*
G04 #@! TA.AperFunction,SMDPad,CuDef*
%ADD14RoundRect,0.200000X-0.275000X0.200000X-0.275000X-0.200000X0.275000X-0.200000X0.275000X0.200000X0*%
G04 #@! TD*
G04 #@! TA.AperFunction,SMDPad,CuDef*
%ADD15RoundRect,0.150000X-0.375000X-0.150000X0.375000X-0.150000X0.375000X0.150000X-0.375000X0.150000X0*%
G04 #@! TD*
G04 #@! TA.AperFunction,SMDPad,CuDef*
%ADD16RoundRect,0.200000X0.200000X-0.250000X0.200000X0.250000X-0.200000X0.250000X-0.200000X-0.250000X0*%
G04 #@! TD*
G04 #@! TA.AperFunction,SMDPad,CuDef*
%ADD17RoundRect,0.200000X-0.250000X-0.200000X0.250000X-0.200000X0.250000X0.200000X-0.250000X0.200000X0*%
G04 #@! TD*
G04 #@! TA.AperFunction,SMDPad,CuDef*
%ADD18RoundRect,0.250000X-0.325000X-1.000000X0.325000X-1.000000X0.325000X1.000000X-0.325000X1.000000X0*%
G04 #@! TD*
G04 #@! TA.AperFunction,SMDPad,CuDef*
%ADD19RoundRect,0.250000X-1.100000X0.325000X-1.100000X-0.325000X1.100000X-0.325000X1.100000X0.325000X0*%
G04 #@! TD*
G04 #@! TA.AperFunction,SMDPad,CuDef*
%ADD20RoundRect,0.200000X0.275000X-0.200000X0.275000X0.200000X-0.275000X0.200000X-0.275000X-0.200000X0*%
G04 #@! TD*
G04 #@! TA.AperFunction,SMDPad,CuDef*
%ADD21RoundRect,0.140000X0.140000X0.170000X-0.140000X0.170000X-0.140000X-0.170000X0.140000X-0.170000X0*%
G04 #@! TD*
G04 #@! TA.AperFunction,SMDPad,CuDef*
%ADD22RoundRect,0.475000X-0.475000X-2.075000X0.475000X-2.075000X0.475000X2.075000X-0.475000X2.075000X0*%
G04 #@! TD*
G04 #@! TA.AperFunction,SMDPad,CuDef*
%ADD23RoundRect,0.135000X-0.135000X-0.185000X0.135000X-0.185000X0.135000X0.185000X-0.135000X0.185000X0*%
G04 #@! TD*
G04 #@! TA.AperFunction,ViaPad*
%ADD24C,0.600000*%
G04 #@! TD*
G04 #@! TA.AperFunction,Conductor*
%ADD25C,0.500000*%
G04 #@! TD*
G04 #@! TA.AperFunction,Conductor*
%ADD26C,0.250000*%
G04 #@! TD*
G04 APERTURE END LIST*
D10*
X50000000Y-30000000D03*
D11*
X49550000Y-31270000D03*
X49550000Y-28730000D03*
D12*
X45000000Y-40500000D03*
D11*
X43730000Y-40050000D03*
X46270000Y-40050000D03*
D13*
X35500000Y-34000000D03*
D11*
X35950000Y-32730000D03*
X35950000Y-35270000D03*
D14*
X36600000Y-30525000D03*
X36600000Y-28875000D03*
D15*
X40800000Y-32050000D03*
X40800000Y-33000000D03*
X40800000Y-33950000D03*
X38200000Y-33950000D03*
X38200000Y-33000000D03*
X38200000Y-32050000D03*
D16*
X40900000Y-31075000D03*
X40900000Y-29525000D03*
D17*
X40575000Y-35200000D03*
X39025000Y-35200000D03*
D18*
X40775000Y-40000000D03*
X37825000Y-40000000D03*
X40775000Y-37200000D03*
X37825000Y-37200000D03*
D19*
X45700000Y-34625000D03*
X45700000Y-37575000D03*
X48900000Y-37575000D03*
X48900000Y-34625000D03*
D20*
X38100000Y-28875000D03*
X38100000Y-30525000D03*
D21*
X42120000Y-35200000D03*
X43080000Y-35200000D03*
D22*
X42700000Y-30400000D03*
X46900000Y-30400000D03*
D23*
X42090000Y-34200000D03*
X43110000Y-34200000D03*
D24*
X44800000Y-28000000D03*
X44800000Y-32200000D03*
X44800000Y-31200000D03*
X44800000Y-30200000D03*
X39900000Y-31000000D03*
X39200000Y-31000000D03*
X38100000Y-28000000D03*
X48000000Y-38500000D03*
X49800000Y-38500000D03*
X48600000Y-38500000D03*
X49200000Y-38500000D03*
X46600000Y-38500000D03*
X46000000Y-38500000D03*
X44800000Y-38500000D03*
X45400000Y-38500000D03*
X41700000Y-40900000D03*
X41700000Y-40300000D03*
X41700000Y-39700000D03*
X41700000Y-36900000D03*
X41700000Y-38100000D03*
X41400000Y-35500000D03*
X41400000Y-34900000D03*
X39900000Y-34300000D03*
X39900000Y-33700000D03*
X48600000Y-33400000D03*
X35600000Y-29600000D03*
X41700000Y-37500000D03*
X41700000Y-36300000D03*
D25*
X40900000Y-31075000D02*
X40900000Y-31950000D01*
X40900000Y-31950000D02*
X40800000Y-32050000D01*
X43110000Y-34200000D02*
X43110000Y-35170000D01*
X43110000Y-35170000D02*
X43080000Y-35200000D01*
D26*
X36325000Y-28875000D02*
X36600000Y-28875000D01*
X35600000Y-29600000D02*
X36325000Y-28875000D01*
G04 #@! TA.AperFunction,Conductor*
G36*
X41528033Y-27520462D02*
G01*
X41582571Y-27575000D01*
X41602533Y-27649500D01*
X41582571Y-27724000D01*
X41569669Y-27742844D01*
X41537171Y-27783275D01*
X41482967Y-27850708D01*
X41398359Y-28021306D01*
X41352399Y-28206112D01*
X41349500Y-28248884D01*
X41349500Y-28532263D01*
X41329538Y-28606763D01*
X41275000Y-28661301D01*
X41200500Y-28681263D01*
X41181053Y-28679988D01*
X41139364Y-28674500D01*
X40660643Y-28674500D01*
X40543238Y-28689956D01*
X40397159Y-28750463D01*
X40271718Y-28846717D01*
X40271717Y-28846718D01*
X40175463Y-28972159D01*
X40114954Y-29118242D01*
X40099500Y-29235633D01*
X40099500Y-29814356D01*
X40108300Y-29881202D01*
X40114956Y-29931762D01*
X40140018Y-29992269D01*
X40175463Y-30077840D01*
X40271717Y-30203281D01*
X40271720Y-30203284D01*
X40326425Y-30245261D01*
X40373377Y-30306451D01*
X40383444Y-30382919D01*
X40353928Y-30454176D01*
X40343443Y-30466131D01*
X40256204Y-30582666D01*
X40256202Y-30582670D01*
X40205908Y-30717517D01*
X40199500Y-30777114D01*
X40199500Y-31372863D01*
X40199501Y-31372877D01*
X40203671Y-31411668D01*
X40191784Y-31487875D01*
X40144005Y-31547475D01*
X40102850Y-31577849D01*
X40102848Y-31577851D01*
X40022207Y-31687116D01*
X39977353Y-31815304D01*
X39974500Y-31845724D01*
X39974500Y-32254275D01*
X39977353Y-32284695D01*
X39977353Y-32284697D01*
X39977354Y-32284699D01*
X39981125Y-32295476D01*
X40022207Y-32412882D01*
X40039654Y-32436523D01*
X40067830Y-32508320D01*
X40056334Y-32584586D01*
X40039654Y-32613477D01*
X40022207Y-32637117D01*
X39977353Y-32765304D01*
X39974500Y-32795724D01*
X39974500Y-33204275D01*
X39977353Y-33234695D01*
X40022207Y-33362883D01*
X40102848Y-33472148D01*
X40102851Y-33472151D01*
X40212116Y-33552792D01*
X40212117Y-33552792D01*
X40212118Y-33552793D01*
X40340301Y-33597646D01*
X40370734Y-33600500D01*
X41177615Y-33600500D01*
X41209937Y-33604048D01*
X41344712Y-33633997D01*
X41413107Y-33669645D01*
X41454515Y-33734715D01*
X41458496Y-33750228D01*
X41516607Y-34040783D01*
X41519500Y-34070004D01*
X41519500Y-34437452D01*
X41519502Y-34437475D01*
X41522258Y-34466878D01*
X41522260Y-34466885D01*
X41565617Y-34590792D01*
X41565618Y-34590794D01*
X41620499Y-34665154D01*
X41643577Y-34696423D01*
X41749206Y-34774381D01*
X41873121Y-34817741D01*
X41902543Y-34820500D01*
X42277456Y-34820499D01*
X42306879Y-34817741D01*
X42306880Y-34817740D01*
X42315746Y-34815805D01*
X42316295Y-34818320D01*
X42379101Y-34813600D01*
X42448599Y-34847049D01*
X42492061Y-34910766D01*
X42499784Y-34973901D01*
X42499500Y-34976925D01*
X42499500Y-35423074D01*
X42502289Y-35452814D01*
X42502289Y-35452816D01*
X42502290Y-35452819D01*
X42546148Y-35578157D01*
X42625001Y-35684999D01*
X42731843Y-35763852D01*
X42857181Y-35807710D01*
X42886934Y-35810500D01*
X42886942Y-35810500D01*
X43273058Y-35810500D01*
X43273066Y-35810500D01*
X43302819Y-35807710D01*
X43428157Y-35763852D01*
X43534999Y-35684999D01*
X43613852Y-35578157D01*
X43657710Y-35452819D01*
X43660500Y-35423066D01*
X43660500Y-34976934D01*
X43660500Y-34541465D01*
X43668861Y-34492255D01*
X43677741Y-34466879D01*
X43680500Y-34437457D01*
X43680499Y-33962544D01*
X43677741Y-33933121D01*
X43677739Y-33933114D01*
X43634382Y-33809207D01*
X43634381Y-33809205D01*
X43556425Y-33703580D01*
X43556423Y-33703577D01*
X43556419Y-33703574D01*
X43450794Y-33625618D01*
X43392154Y-33605099D01*
X43328428Y-33561651D01*
X43294964Y-33492161D01*
X43300729Y-33415248D01*
X43344177Y-33351522D01*
X43405405Y-33319866D01*
X43478693Y-33301641D01*
X43649296Y-33217030D01*
X43797722Y-33097722D01*
X43917030Y-32949296D01*
X44001641Y-32778693D01*
X44047600Y-32593889D01*
X44050500Y-32551123D01*
X44050499Y-28248878D01*
X44047600Y-28206111D01*
X44001641Y-28021307D01*
X43917030Y-27850704D01*
X43830333Y-27742848D01*
X43799218Y-27672277D01*
X43807557Y-27595601D01*
X43853117Y-27533367D01*
X43923690Y-27502251D01*
X43946467Y-27500500D01*
X45793059Y-27500500D01*
X45867559Y-27520462D01*
X45922097Y-27575000D01*
X45942059Y-27649500D01*
X45922097Y-27724000D01*
X45898418Y-27754859D01*
X45814850Y-27838427D01*
X45721877Y-27986394D01*
X45721876Y-27986396D01*
X45664159Y-28151341D01*
X45649500Y-28281448D01*
X45649500Y-32518554D01*
X45653392Y-32553102D01*
X45641896Y-32629368D01*
X45614030Y-32671689D01*
X44646599Y-33703618D01*
X44581082Y-33744316D01*
X44555664Y-33749648D01*
X44468435Y-33760123D01*
X44327658Y-33815638D01*
X44327658Y-33815639D01*
X44207079Y-33907076D01*
X44207076Y-33907079D01*
X44115639Y-34027658D01*
X44115638Y-34027658D01*
X44060122Y-34168436D01*
X44049500Y-34256894D01*
X44049500Y-34993105D01*
X44060122Y-35081563D01*
X44115638Y-35222341D01*
X44115639Y-35222342D01*
X44207078Y-35342922D01*
X44327658Y-35434361D01*
X44468436Y-35489877D01*
X44556898Y-35500500D01*
X44556899Y-35500500D01*
X46843101Y-35500500D01*
X46843102Y-35500500D01*
X46931564Y-35489877D01*
X47072342Y-35434361D01*
X47072344Y-35434358D01*
X47081225Y-35429366D01*
X47082152Y-35431016D01*
X47141904Y-35406666D01*
X47160507Y-35405500D01*
X47439493Y-35405500D01*
X47513993Y-35425462D01*
X47525931Y-35433389D01*
X47527658Y-35434361D01*
X47668436Y-35489877D01*
X47756898Y-35500500D01*
X47756899Y-35500500D01*
X50043101Y-35500500D01*
X50043102Y-35500500D01*
X50131564Y-35489877D01*
X50272342Y-35434361D01*
X50392922Y-35342922D01*
X50484361Y-35222342D01*
X50539877Y-35081564D01*
X50550500Y-34993102D01*
X50550500Y-34256898D01*
X50539877Y-34168436D01*
X50484361Y-34027658D01*
X50484360Y-34027656D01*
X50482110Y-34021951D01*
X50473349Y-33945322D01*
X50475350Y-33934607D01*
X50705134Y-32913345D01*
X50740963Y-32845045D01*
X50806143Y-32803809D01*
X50883207Y-32800687D01*
X50951508Y-32836516D01*
X50992744Y-32901696D01*
X50999500Y-32946053D01*
X50999500Y-40991632D01*
X50998563Y-41008317D01*
X50988855Y-41094467D01*
X50981431Y-41126993D01*
X50955578Y-41200878D01*
X50941101Y-41230939D01*
X50899456Y-41297217D01*
X50878653Y-41323304D01*
X50823304Y-41378653D01*
X50797217Y-41399456D01*
X50730939Y-41441101D01*
X50700878Y-41455578D01*
X50626993Y-41481431D01*
X50594467Y-41488855D01*
X50531435Y-41495957D01*
X50508313Y-41498563D01*
X50491633Y-41499500D01*
X39854500Y-41499500D01*
X39780000Y-41479538D01*
X39725462Y-41425000D01*
X39705500Y-41350500D01*
X39705500Y-35704710D01*
X39718547Y-35653612D01*
X39715071Y-35652316D01*
X39718794Y-35642333D01*
X39718796Y-35642331D01*
X39769091Y-35507483D01*
X39775500Y-35447873D01*
X39775499Y-34952128D01*
X39769091Y-34892517D01*
X39752133Y-34847049D01*
X39718797Y-34757670D01*
X39718795Y-34757666D01*
X39632547Y-34642455D01*
X39632544Y-34642452D01*
X39517333Y-34556204D01*
X39517329Y-34556202D01*
X39382481Y-34505908D01*
X39373412Y-34503765D01*
X39373849Y-34501913D01*
X39312895Y-34478340D01*
X39295417Y-34463375D01*
X39069141Y-34237099D01*
X39030577Y-34170304D01*
X39025500Y-34131740D01*
X39025500Y-33745741D01*
X39025499Y-33745724D01*
X39025367Y-33744316D01*
X39022646Y-33715301D01*
X39018543Y-33703574D01*
X39013861Y-33690193D01*
X39005500Y-33640983D01*
X39005500Y-33309014D01*
X39013862Y-33259801D01*
X39022646Y-33234699D01*
X39025500Y-33204266D01*
X39025500Y-32795734D01*
X39022646Y-32765301D01*
X38977793Y-32637118D01*
X38960346Y-32613478D01*
X38932169Y-32541683D01*
X38943664Y-32465416D01*
X38960347Y-32436520D01*
X38977793Y-32412882D01*
X39022646Y-32284699D01*
X39025500Y-32254266D01*
X39025500Y-31845734D01*
X39022646Y-31815301D01*
X38977793Y-31687118D01*
X38952487Y-31652830D01*
X38897151Y-31577851D01*
X38897147Y-31577847D01*
X38866020Y-31554874D01*
X38817932Y-31494573D01*
X38805500Y-31434990D01*
X38805500Y-31029710D01*
X38818547Y-30978612D01*
X38815071Y-30977316D01*
X38818794Y-30967333D01*
X38818796Y-30967331D01*
X38869091Y-30832483D01*
X38875044Y-30777114D01*
X38875499Y-30772885D01*
X38875499Y-30772882D01*
X38875500Y-30772873D01*
X38875499Y-30277128D01*
X38869091Y-30217517D01*
X38841218Y-30142785D01*
X38818797Y-30082670D01*
X38818795Y-30082666D01*
X38732547Y-29967455D01*
X38732544Y-29967452D01*
X38617333Y-29881204D01*
X38617329Y-29881202D01*
X38482482Y-29830908D01*
X38422876Y-29824500D01*
X37777136Y-29824500D01*
X37777111Y-29824502D01*
X37717521Y-29830908D01*
X37717515Y-29830909D01*
X37582670Y-29881202D01*
X37515134Y-29931761D01*
X37471024Y-29964780D01*
X37399424Y-29993446D01*
X37381733Y-29994500D01*
X37318267Y-29994500D01*
X37243767Y-29974538D01*
X37228981Y-29964785D01*
X37117331Y-29881204D01*
X37117330Y-29881203D01*
X37005800Y-29839605D01*
X36942973Y-29794866D01*
X36910933Y-29724708D01*
X36918264Y-29647929D01*
X36963003Y-29585102D01*
X37005799Y-29560394D01*
X37117331Y-29518796D01*
X37117331Y-29518795D01*
X37117333Y-29518795D01*
X37218263Y-29443238D01*
X37232546Y-29432546D01*
X37294027Y-29350417D01*
X37354654Y-29302741D01*
X37430997Y-29291765D01*
X37502600Y-29320431D01*
X37518666Y-29334352D01*
X37586954Y-29402640D01*
X37699849Y-29460163D01*
X37699851Y-29460164D01*
X37793523Y-29474999D01*
X37950000Y-29474999D01*
X38250000Y-29474999D01*
X38406483Y-29474999D01*
X38500146Y-29460165D01*
X38613045Y-29402640D01*
X38702640Y-29313045D01*
X38760163Y-29200150D01*
X38760164Y-29200148D01*
X38775000Y-29106476D01*
X38775000Y-29025000D01*
X38250000Y-29025000D01*
X38250000Y-29474999D01*
X37950000Y-29474999D01*
X37950000Y-28725000D01*
X38250000Y-28725000D01*
X38774999Y-28725000D01*
X38774999Y-28643517D01*
X38760165Y-28549853D01*
X38702640Y-28436954D01*
X38613045Y-28347359D01*
X38500150Y-28289836D01*
X38500148Y-28289835D01*
X38406476Y-28275000D01*
X38250000Y-28275000D01*
X38250000Y-28725000D01*
X37950000Y-28725000D01*
X37950000Y-28275000D01*
X37793517Y-28275000D01*
X37699853Y-28289834D01*
X37586953Y-28347359D01*
X37518665Y-28415648D01*
X37451870Y-28454211D01*
X37374742Y-28454211D01*
X37307947Y-28415646D01*
X37294027Y-28399581D01*
X37232547Y-28317455D01*
X37232544Y-28317452D01*
X37117333Y-28231204D01*
X37117329Y-28231202D01*
X36982482Y-28180908D01*
X36922876Y-28174500D01*
X36277136Y-28174500D01*
X36277111Y-28174502D01*
X36217521Y-28180908D01*
X36217515Y-28180909D01*
X36082670Y-28231202D01*
X36082666Y-28231204D01*
X35967455Y-28317452D01*
X35967452Y-28317455D01*
X35881204Y-28432666D01*
X35881202Y-28432670D01*
X35830908Y-28567517D01*
X35824500Y-28627114D01*
X35824500Y-28712033D01*
X35804538Y-28786533D01*
X35780859Y-28817392D01*
X35640293Y-28957957D01*
X35573498Y-28996521D01*
X35554382Y-29000323D01*
X35443242Y-29014954D01*
X35297159Y-29075463D01*
X35171718Y-29171717D01*
X35171717Y-29171718D01*
X35075463Y-29297159D01*
X35014954Y-29443242D01*
X34994318Y-29599997D01*
X34994318Y-29600002D01*
X35014954Y-29756757D01*
X35075463Y-29902840D01*
X35125042Y-29967452D01*
X35171718Y-30028282D01*
X35297159Y-30124536D01*
X35443238Y-30185044D01*
X35443241Y-30185044D01*
X35443243Y-30185045D01*
X35443240Y-30185045D01*
X35599997Y-30205682D01*
X35600000Y-30205682D01*
X35600003Y-30205682D01*
X35656052Y-30198303D01*
X35732520Y-30208370D01*
X35793710Y-30255323D01*
X35823225Y-30326580D01*
X35824500Y-30346028D01*
X35824500Y-30772863D01*
X35824502Y-30772888D01*
X35830908Y-30832478D01*
X35830909Y-30832484D01*
X35881202Y-30967329D01*
X35881204Y-30967333D01*
X35967452Y-31082544D01*
X35967455Y-31082547D01*
X36082666Y-31168795D01*
X36082670Y-31168797D01*
X36217517Y-31219091D01*
X36262787Y-31223958D01*
X36334726Y-31251768D01*
X36348511Y-31263164D01*
X36493770Y-31398739D01*
X36534612Y-31464163D01*
X36537269Y-31541246D01*
X36501030Y-31609330D01*
X36435604Y-31650173D01*
X36358521Y-31652830D01*
X36338279Y-31646603D01*
X36266198Y-31618679D01*
X36056614Y-31579500D01*
X36056610Y-31579500D01*
X35843390Y-31579500D01*
X35843385Y-31579500D01*
X35633802Y-31618679D01*
X35633795Y-31618681D01*
X35451150Y-31689438D01*
X35397325Y-31699500D01*
X34697674Y-31699500D01*
X34667264Y-31703152D01*
X34590915Y-31692214D01*
X34530264Y-31644568D01*
X34501563Y-31572979D01*
X34500500Y-31555215D01*
X34500500Y-28008367D01*
X34501437Y-27991684D01*
X34502033Y-27986394D01*
X34511144Y-27905532D01*
X34518568Y-27873006D01*
X34544422Y-27799118D01*
X34558898Y-27769060D01*
X34600543Y-27702782D01*
X34621342Y-27676699D01*
X34676699Y-27621342D01*
X34702782Y-27600543D01*
X34769060Y-27558898D01*
X34799118Y-27544422D01*
X34873008Y-27518567D01*
X34905532Y-27511144D01*
X34991684Y-27501436D01*
X35008367Y-27500500D01*
X35065892Y-27500500D01*
X41453533Y-27500500D01*
X41528033Y-27520462D01*
G37*
G04 #@! TD.AperFunction*
G04 #@! TA.AperFunction,Conductor*
G36*
X36143039Y-32319685D02*
G01*
X36188794Y-32372489D01*
X36200000Y-32424000D01*
X36200000Y-32800000D01*
X38576000Y-32800000D01*
X38643039Y-32819685D01*
X38688794Y-32872489D01*
X38700000Y-32924000D01*
X38700000Y-34300000D01*
X39363681Y-34963681D01*
X39397166Y-35025004D01*
X39400000Y-35051362D01*
X39400000Y-41375500D01*
X39380315Y-41442539D01*
X39327511Y-41488294D01*
X39276000Y-41499500D01*
X35006962Y-41499500D01*
X34993078Y-41498720D01*
X34980553Y-41497308D01*
X34902735Y-41488540D01*
X34875666Y-41482362D01*
X34796462Y-41454648D01*
X34771444Y-41442600D01*
X34700395Y-41397957D01*
X34678686Y-41380644D01*
X34619355Y-41321313D01*
X34602042Y-41299604D01*
X34557399Y-41228555D01*
X34545351Y-41203537D01*
X34517637Y-41124333D01*
X34511459Y-41097263D01*
X34501280Y-41006922D01*
X34500500Y-40993038D01*
X34500500Y-32424000D01*
X34520185Y-32356961D01*
X34572989Y-32311206D01*
X34624500Y-32300000D01*
X36076000Y-32300000D01*
X36143039Y-32319685D01*
G37*
G04 #@! TD.AperFunction*
G04 #@! TA.AperFunction,Conductor*
G36*
X43543039Y-29119685D02*
G01*
X43588794Y-29172489D01*
X43600000Y-29224000D01*
X43600000Y-32539353D01*
X43580315Y-32606392D01*
X43552129Y-32637233D01*
X42699998Y-33300001D01*
X42329681Y-34318376D01*
X42288272Y-34374652D01*
X42223010Y-34399607D01*
X42213147Y-34400000D01*
X42001656Y-34400000D01*
X41934617Y-34380315D01*
X41888862Y-34327511D01*
X41880064Y-34300318D01*
X41700000Y-33400000D01*
X41699999Y-33399999D01*
X40897101Y-33221577D01*
X40835928Y-33187818D01*
X40802717Y-33126346D01*
X40800000Y-33100530D01*
X40800000Y-32901655D01*
X40819685Y-32834616D01*
X40872489Y-32788861D01*
X40899677Y-32780064D01*
X41800000Y-32600000D01*
X41800000Y-29900000D01*
X40724000Y-29900000D01*
X40656961Y-29880315D01*
X40611206Y-29827511D01*
X40600000Y-29776000D01*
X40600000Y-29224000D01*
X40619685Y-29156961D01*
X40672489Y-29111206D01*
X40724000Y-29100000D01*
X43476000Y-29100000D01*
X43543039Y-29119685D01*
G37*
G04 #@! TD.AperFunction*
G04 #@! TA.AperFunction,Conductor*
G36*
X50743039Y-28019685D02*
G01*
X50788794Y-28072489D01*
X50800000Y-28124000D01*
X50800000Y-31086220D01*
X50796976Y-31113439D01*
X49921776Y-35003219D01*
X49887855Y-35064303D01*
X49826295Y-35097351D01*
X49800800Y-35100000D01*
X44724000Y-35100000D01*
X44656961Y-35080315D01*
X44611206Y-35027511D01*
X44600000Y-34976000D01*
X44600000Y-34249036D01*
X44619685Y-34181997D01*
X44633537Y-34164227D01*
X46100000Y-32600000D01*
X46100000Y-28124000D01*
X46119685Y-28056961D01*
X46172489Y-28011206D01*
X46224000Y-28000000D01*
X50676000Y-28000000D01*
X50743039Y-28019685D01*
G37*
G04 #@! TD.AperFunction*
G04 #@! TA.AperFunction,Conductor*
G36*
X38008059Y-30301061D02*
G01*
X38113223Y-30314906D01*
X38144491Y-30323284D01*
X38234918Y-30360740D01*
X38262952Y-30376925D01*
X38340602Y-30436509D01*
X38363491Y-30459398D01*
X38423074Y-30537048D01*
X38439259Y-30565081D01*
X38476715Y-30655508D01*
X38485093Y-30686775D01*
X38498939Y-30791939D01*
X38500000Y-30808125D01*
X38500000Y-31840243D01*
X38498473Y-31859642D01*
X38485942Y-31938757D01*
X38473954Y-31975653D01*
X38442071Y-32038227D01*
X38419267Y-32069613D01*
X38369613Y-32119267D01*
X38338227Y-32142071D01*
X38275653Y-32173954D01*
X38238757Y-32185942D01*
X38176308Y-32195833D01*
X38159640Y-32198473D01*
X38140243Y-32200000D01*
X38004851Y-32200000D01*
X37989372Y-32199030D01*
X37888708Y-32186365D01*
X37858716Y-32178697D01*
X37771610Y-32144363D01*
X37744451Y-32129504D01*
X37662223Y-32070081D01*
X37650246Y-32060229D01*
X36465042Y-30954038D01*
X36453482Y-30941667D01*
X36383609Y-30855828D01*
X36366050Y-30826968D01*
X36325351Y-30733311D01*
X36316233Y-30700782D01*
X36301156Y-30591131D01*
X36300000Y-30574240D01*
X36300000Y-30562210D01*
X36302383Y-30538019D01*
X36314218Y-30478519D01*
X36332729Y-30433826D01*
X36359524Y-30393724D01*
X36393724Y-30359524D01*
X36433826Y-30332729D01*
X36478514Y-30314219D01*
X36538028Y-30302381D01*
X36562211Y-30300000D01*
X37991874Y-30300000D01*
X38008059Y-30301061D01*
G37*
G04 #@! TD.AperFunction*
M02*
