G04 #@! TF.GenerationSoftware,KiCad,Pcbnew,8.0.8*
G04 #@! TF.CreationDate,2026-01-04T09:20:55-05:00*
G04 #@! TF.ProjectId,project-hw-60v-dcdc,70726f6a-6563-4742-9d68-772d3630762d,rev?*
G04 #@! TF.SameCoordinates,Original*
G04 #@! TF.FileFunction,Legend,Bot*
G04 #@! TF.FilePolarity,Positive*
%FSLAX46Y46*%
G04 Gerber Fmt 4.6, Leading zero omitted, Abs format (unit mm)*
G04 Created by KiCad (PCBNEW 8.0.8) date 2026-01-04 09:20:55*
%MOMM*%
%LPD*%
G01*
G04 APERTURE LIST*
G04 Aperture macros list*
%AMRoundRect*
0 Rectangle with rounded corners*
0 $1 Rounding radius*
0 $2 $3 $4 $5 $6 $7 $8 $9 X,Y pos of 4 corners*
0 Add a 4 corners polygon primitive as box body*
4,1,4,$2,$3,$4,$5,$6,$7,$8,$9,$2,$3,0*
0 Add four circle primitives for the rounded corners*
1,1,$1+$1,$2,$3*
1,1,$1+$1,$4,$5*
1,1,$1+$1,$6,$7*
1,1,$1+$1,$8,$9*
0 Add four rect primitives between the rounded corners*
20,1,$1+$1,$2,$3,$4,$5,0*
20,1,$1+$1,$4,$5,$6,$7,0*
20,1,$1+$1,$6,$7,$8,$9,0*
20,1,$1+$1,$8,$9,$2,$3,0*%
G04 Aperture macros list end*
%ADD10C,0.100000*%
%ADD11C,0.500000*%
%ADD12RoundRect,0.480000X1.520000X-1.770000X1.520000X1.770000X-1.520000X1.770000X-1.520000X-1.770000X0*%
%ADD13C,1.700000*%
G04 APERTURE END LIST*
D10*
G36*
X35170000Y-34598953D02*
G01*
X35170000Y-34727180D01*
X35904682Y-34985833D01*
X35904682Y-34853698D01*
X35308729Y-34656838D01*
X35904682Y-34448499D01*
X35904682Y-34316364D01*
X35170000Y-34598953D01*
G37*
G36*
X35889050Y-33941939D02*
G01*
X35889050Y-34162735D01*
X35982840Y-34162735D01*
X35989806Y-34112474D01*
X35999106Y-34062693D01*
X36012918Y-34012701D01*
X36030711Y-33975645D01*
X36068497Y-33942017D01*
X36115227Y-33918729D01*
X36163671Y-33901712D01*
X36170418Y-33899685D01*
X36170418Y-33818108D01*
X35170000Y-33818108D01*
X35170000Y-33941939D01*
X35889050Y-33941939D01*
G37*
G36*
X35310683Y-33269783D02*
G01*
X35170000Y-33269783D01*
X35170000Y-33416085D01*
X35310683Y-33416085D01*
X35310683Y-33269783D01*
G37*
G36*
X35712749Y-32467010D02*
G01*
X35771738Y-32470834D01*
X35826658Y-32477207D01*
X35877510Y-32486130D01*
X35946160Y-32504294D01*
X36005657Y-32528193D01*
X36056001Y-32557829D01*
X36097191Y-32593200D01*
X36129228Y-32634307D01*
X36152111Y-32681150D01*
X36165842Y-32733729D01*
X36170418Y-32792044D01*
X36168268Y-32831715D01*
X36159183Y-32879972D01*
X36140904Y-32925053D01*
X36114242Y-32966434D01*
X36103285Y-32980173D01*
X36067274Y-33015409D01*
X36026803Y-33043859D01*
X36023405Y-33045863D01*
X35976292Y-33068240D01*
X35928112Y-33084526D01*
X35877815Y-33097348D01*
X35865794Y-33099891D01*
X35815419Y-33108425D01*
X35761380Y-33114332D01*
X35711091Y-33117347D01*
X35657997Y-33118353D01*
X35642239Y-33118272D01*
X35581581Y-33116325D01*
X35524717Y-33111784D01*
X35471645Y-33104647D01*
X35422367Y-33094916D01*
X35366105Y-33079102D01*
X35315769Y-33059233D01*
X35271360Y-33035310D01*
X35255300Y-33024628D01*
X35213337Y-32988965D01*
X35180699Y-32947875D01*
X35157387Y-32901358D01*
X35143399Y-32849415D01*
X35138974Y-32794975D01*
X35248157Y-32794975D01*
X35258133Y-32851688D01*
X35288061Y-32898788D01*
X35326369Y-32929547D01*
X35377447Y-32954155D01*
X35424134Y-32968573D01*
X35478005Y-32979531D01*
X35539058Y-32987029D01*
X35607294Y-32991066D01*
X35656775Y-32991835D01*
X35681645Y-32991640D01*
X35751515Y-32988713D01*
X35814280Y-32982275D01*
X35869939Y-32972324D01*
X35933099Y-32953594D01*
X35983627Y-32928620D01*
X36021523Y-32897403D01*
X36051129Y-32849601D01*
X36060997Y-32792044D01*
X36059435Y-32767851D01*
X36041853Y-32714196D01*
X36004738Y-32670297D01*
X35960980Y-32642201D01*
X35904720Y-32620349D01*
X35854321Y-32608057D01*
X35796889Y-32599277D01*
X35732424Y-32594009D01*
X35660928Y-32592254D01*
X35609835Y-32593024D01*
X35550821Y-32596156D01*
X35497197Y-32601697D01*
X35448964Y-32609647D01*
X35398200Y-32622366D01*
X35348785Y-32641591D01*
X35314587Y-32661941D01*
X35276557Y-32699744D01*
X35254446Y-32746279D01*
X35248157Y-32794975D01*
X35138974Y-32794975D01*
X35138736Y-32792044D01*
X35139249Y-32772464D01*
X35146934Y-32717260D01*
X35163841Y-32667363D01*
X35189970Y-32622772D01*
X35225321Y-32583488D01*
X35269895Y-32549511D01*
X35278222Y-32544357D01*
X35323284Y-32521041D01*
X35374058Y-32501815D01*
X35430546Y-32486680D01*
X35479848Y-32477517D01*
X35532807Y-32470972D01*
X35589422Y-32467045D01*
X35649692Y-32465736D01*
X35712749Y-32467010D01*
G37*
G36*
X35310683Y-32142358D02*
G01*
X35170000Y-32142358D01*
X35170000Y-32288660D01*
X35310683Y-32288660D01*
X35310683Y-32142358D01*
G37*
G36*
X35712749Y-31339585D02*
G01*
X35771738Y-31343409D01*
X35826658Y-31349783D01*
X35877510Y-31358705D01*
X35946160Y-31376869D01*
X36005657Y-31400768D01*
X36056001Y-31430404D01*
X36097191Y-31465775D01*
X36129228Y-31506882D01*
X36152111Y-31553725D01*
X36165842Y-31606304D01*
X36170418Y-31664619D01*
X36168268Y-31704290D01*
X36159183Y-31752547D01*
X36140904Y-31797628D01*
X36114242Y-31839009D01*
X36103285Y-31852748D01*
X36067274Y-31887984D01*
X36026803Y-31916434D01*
X36023405Y-31918438D01*
X35976292Y-31940815D01*
X35928112Y-31957101D01*
X35877815Y-31969923D01*
X35865794Y-31972466D01*
X35815419Y-31981000D01*
X35761380Y-31986907D01*
X35711091Y-31989923D01*
X35657997Y-31990928D01*
X35642239Y-31990847D01*
X35581581Y-31988900D01*
X35524717Y-31984359D01*
X35471645Y-31977222D01*
X35422367Y-31967491D01*
X35366105Y-31951677D01*
X35315769Y-31931808D01*
X35271360Y-31907885D01*
X35255300Y-31897203D01*
X35213337Y-31861540D01*
X35180699Y-31820450D01*
X35157387Y-31773933D01*
X35143399Y-31721990D01*
X35138974Y-31667550D01*
X35248157Y-31667550D01*
X35258133Y-31724263D01*
X35288061Y-31771363D01*
X35326369Y-31802122D01*
X35377447Y-31826730D01*
X35424134Y-31841148D01*
X35478005Y-31852106D01*
X35539058Y-31859604D01*
X35607294Y-31863641D01*
X35656775Y-31864410D01*
X35681645Y-31864215D01*
X35751515Y-31861288D01*
X35814280Y-31854850D01*
X35869939Y-31844899D01*
X35933099Y-31826169D01*
X35983627Y-31801195D01*
X36021523Y-31769978D01*
X36051129Y-31722176D01*
X36060997Y-31664619D01*
X36059435Y-31640426D01*
X36041853Y-31586771D01*
X36004738Y-31542872D01*
X35960980Y-31514776D01*
X35904720Y-31492924D01*
X35854321Y-31480632D01*
X35796889Y-31471852D01*
X35732424Y-31466585D01*
X35660928Y-31464829D01*
X35609835Y-31465599D01*
X35550821Y-31468731D01*
X35497197Y-31474272D01*
X35448964Y-31482222D01*
X35398200Y-31494941D01*
X35348785Y-31514166D01*
X35314587Y-31534516D01*
X35276557Y-31572319D01*
X35254446Y-31618854D01*
X35248157Y-31667550D01*
X35138974Y-31667550D01*
X35138736Y-31664619D01*
X35139249Y-31645039D01*
X35146934Y-31589835D01*
X35163841Y-31539938D01*
X35189970Y-31495347D01*
X35225321Y-31456063D01*
X35269895Y-31422086D01*
X35278222Y-31416932D01*
X35323284Y-31393616D01*
X35374058Y-31374390D01*
X35430546Y-31359255D01*
X35479848Y-31350092D01*
X35532807Y-31343547D01*
X35589422Y-31339620D01*
X35649692Y-31338311D01*
X35712749Y-31339585D01*
G37*
G36*
X35607683Y-30870097D02*
G01*
X35513893Y-30870097D01*
X35513893Y-31209106D01*
X35607683Y-31209106D01*
X35607683Y-30870097D01*
G37*
G36*
X36170418Y-30138101D02*
G01*
X36060997Y-30138101D01*
X36060997Y-30553070D01*
X35767418Y-30592637D01*
X35793277Y-30549971D01*
X35813537Y-30499235D01*
X35824446Y-30445600D01*
X35826524Y-30408234D01*
X35823287Y-30356293D01*
X35813576Y-30308182D01*
X35794063Y-30256893D01*
X35765737Y-30210816D01*
X35734445Y-30175471D01*
X35691614Y-30140639D01*
X35643477Y-30114362D01*
X35590034Y-30096641D01*
X35540002Y-30088260D01*
X35495331Y-30086078D01*
X35438373Y-30089444D01*
X35385467Y-30099542D01*
X35336615Y-30116371D01*
X35291816Y-30139933D01*
X35251069Y-30170227D01*
X35238387Y-30181821D01*
X35204522Y-30219648D01*
X35177663Y-30261322D01*
X35157810Y-30306843D01*
X35144965Y-30356210D01*
X35139126Y-30409425D01*
X35138736Y-30428018D01*
X35141420Y-30480071D01*
X35150197Y-30531217D01*
X35150949Y-30534263D01*
X35165958Y-30583413D01*
X35179769Y-30614375D01*
X35208021Y-30655378D01*
X35224221Y-30672260D01*
X35262003Y-30704088D01*
X35272826Y-30711584D01*
X35317812Y-30733730D01*
X35325582Y-30736741D01*
X35369302Y-30751639D01*
X35404473Y-30758478D01*
X35404473Y-30634891D01*
X35351350Y-30614401D01*
X35309218Y-30585718D01*
X35273955Y-30541902D01*
X35255637Y-30495471D01*
X35248310Y-30440849D01*
X35248157Y-30430949D01*
X35253045Y-30377333D01*
X35267709Y-30330519D01*
X35295468Y-30286479D01*
X35309951Y-30271214D01*
X35352960Y-30240431D01*
X35399174Y-30222474D01*
X35452497Y-30213752D01*
X35478478Y-30212840D01*
X35530975Y-30216534D01*
X35582991Y-30229521D01*
X35627549Y-30251859D01*
X35653112Y-30271946D01*
X35686857Y-30312848D01*
X35708105Y-30361668D01*
X35716541Y-30412376D01*
X35717103Y-30430704D01*
X35713293Y-30481215D01*
X35699762Y-30529378D01*
X35674083Y-30573475D01*
X35641652Y-30610928D01*
X35638946Y-30613642D01*
X35638946Y-30727704D01*
X36170418Y-30652965D01*
X36170418Y-30138101D01*
G37*
G36*
X35607683Y-29626413D02*
G01*
X35513893Y-29626413D01*
X35513893Y-29965422D01*
X35607683Y-29965422D01*
X35607683Y-29626413D01*
G37*
G36*
X35904682Y-28997243D02*
G01*
X35791598Y-28983077D01*
X35835341Y-29017561D01*
X35870034Y-29055617D01*
X35899070Y-29104531D01*
X35915788Y-29158306D01*
X35920314Y-29208269D01*
X35917630Y-29250909D01*
X35904858Y-29306157D01*
X35881566Y-29356216D01*
X35847756Y-29401085D01*
X35810404Y-29435415D01*
X35781919Y-29455679D01*
X35735185Y-29481010D01*
X35683642Y-29500261D01*
X35627291Y-29513433D01*
X35576658Y-29519766D01*
X35522686Y-29521877D01*
X35490685Y-29521110D01*
X35440040Y-29516427D01*
X35383706Y-29505187D01*
X35332215Y-29487816D01*
X35285566Y-29464315D01*
X35243761Y-29434682D01*
X35219146Y-29412223D01*
X35183967Y-29369743D01*
X35158839Y-29323219D01*
X35143762Y-29272650D01*
X35138736Y-29218039D01*
X35139778Y-29194103D01*
X35248157Y-29194103D01*
X35249333Y-29217401D01*
X35260573Y-29265162D01*
X35287019Y-29310662D01*
X35323384Y-29344801D01*
X35328140Y-29348167D01*
X35375839Y-29373652D01*
X35425634Y-29389039D01*
X35474915Y-29396893D01*
X35529525Y-29399511D01*
X35537578Y-29399458D01*
X35590998Y-29396092D01*
X35639252Y-29387490D01*
X35688074Y-29371248D01*
X35734933Y-29344801D01*
X35748508Y-29334151D01*
X35784114Y-29293660D01*
X35804884Y-29245489D01*
X35810893Y-29195568D01*
X35810232Y-29177994D01*
X35798477Y-29124871D01*
X35772030Y-29080144D01*
X35735666Y-29047069D01*
X35730906Y-29043823D01*
X35682805Y-29019248D01*
X35632102Y-29004410D01*
X35581601Y-28996837D01*
X35525373Y-28994312D01*
X35471309Y-28996872D01*
X35416075Y-29006065D01*
X35367834Y-29021945D01*
X35321919Y-29047801D01*
X35308737Y-29058176D01*
X35274161Y-29097751D01*
X35253992Y-29145006D01*
X35248157Y-29194103D01*
X35139778Y-29194103D01*
X35139836Y-29192777D01*
X35149758Y-29141931D01*
X35170000Y-29096406D01*
X35196000Y-29060540D01*
X35231352Y-29025482D01*
X35271605Y-28994312D01*
X35232037Y-28994312D01*
X35214582Y-28994483D01*
X35165618Y-28997045D01*
X35114940Y-29003918D01*
X35065523Y-29016898D01*
X35020767Y-29038032D01*
X35000714Y-29053442D01*
X34970803Y-29095212D01*
X34955508Y-29145285D01*
X34951158Y-29199720D01*
X34953112Y-29237296D01*
X34963370Y-29285501D01*
X34986451Y-29329369D01*
X35027484Y-29363189D01*
X35076210Y-29378506D01*
X35076210Y-29497941D01*
X35045239Y-29493236D01*
X34994959Y-29476443D01*
X34951713Y-29448946D01*
X34915498Y-29410746D01*
X34908459Y-29400865D01*
X34884844Y-29357275D01*
X34868495Y-29307182D01*
X34860150Y-29258017D01*
X34857369Y-29203872D01*
X34857485Y-29191190D01*
X34860890Y-29137590D01*
X34870201Y-29084696D01*
X34887166Y-29034612D01*
X34903897Y-29003227D01*
X34936320Y-28963934D01*
X34977536Y-28933984D01*
X35012458Y-28916686D01*
X35061665Y-28898792D01*
X35109427Y-28887578D01*
X35132491Y-28883919D01*
X35183734Y-28878462D01*
X35235686Y-28875671D01*
X35286503Y-28874877D01*
X35904682Y-28874877D01*
X35904682Y-28997243D01*
G37*
G36*
X35712749Y-28082363D02*
G01*
X35771738Y-28086187D01*
X35826658Y-28092560D01*
X35877510Y-28101482D01*
X35946160Y-28119646D01*
X36005657Y-28143546D01*
X36056001Y-28173181D01*
X36097191Y-28208552D01*
X36129228Y-28249660D01*
X36152111Y-28296503D01*
X36165842Y-28349082D01*
X36170418Y-28407397D01*
X36168268Y-28447067D01*
X36159183Y-28495324D01*
X36140904Y-28540405D01*
X36114242Y-28581786D01*
X36103285Y-28595526D01*
X36067274Y-28630762D01*
X36026803Y-28659211D01*
X36023405Y-28661215D01*
X35976292Y-28683592D01*
X35928112Y-28699878D01*
X35877815Y-28712700D01*
X35865794Y-28715244D01*
X35815419Y-28723777D01*
X35761380Y-28729685D01*
X35711091Y-28732700D01*
X35657997Y-28733705D01*
X35642239Y-28733624D01*
X35581581Y-28731678D01*
X35524717Y-28727136D01*
X35471645Y-28720000D01*
X35422367Y-28710268D01*
X35366105Y-28694454D01*
X35315769Y-28674586D01*
X35271360Y-28650662D01*
X35255300Y-28639981D01*
X35213337Y-28604317D01*
X35180699Y-28563227D01*
X35157387Y-28516711D01*
X35143399Y-28464767D01*
X35138974Y-28410327D01*
X35248157Y-28410327D01*
X35258133Y-28467040D01*
X35288061Y-28514140D01*
X35326369Y-28544900D01*
X35377447Y-28569507D01*
X35424134Y-28583925D01*
X35478005Y-28594883D01*
X35539058Y-28602381D01*
X35607294Y-28606418D01*
X35656775Y-28607187D01*
X35681645Y-28606992D01*
X35751515Y-28604065D01*
X35814280Y-28597627D01*
X35869939Y-28587676D01*
X35933099Y-28568946D01*
X35983627Y-28543972D01*
X36021523Y-28512755D01*
X36051129Y-28464953D01*
X36060997Y-28407397D01*
X36059435Y-28383203D01*
X36041853Y-28329548D01*
X36004738Y-28285649D01*
X35960980Y-28257554D01*
X35904720Y-28235701D01*
X35854321Y-28223410D01*
X35796889Y-28214630D01*
X35732424Y-28209362D01*
X35660928Y-28207606D01*
X35609835Y-28208377D01*
X35550821Y-28211509D01*
X35497197Y-28217049D01*
X35448964Y-28224999D01*
X35398200Y-28237719D01*
X35348785Y-28256943D01*
X35314587Y-28277293D01*
X35276557Y-28315096D01*
X35254446Y-28361632D01*
X35248157Y-28410327D01*
X35138974Y-28410327D01*
X35138736Y-28407397D01*
X35139249Y-28387816D01*
X35146934Y-28332612D01*
X35163841Y-28282715D01*
X35189970Y-28238125D01*
X35225321Y-28198841D01*
X35269895Y-28164863D01*
X35278222Y-28159709D01*
X35323284Y-28136393D01*
X35374058Y-28117167D01*
X35430546Y-28102032D01*
X35479848Y-28092869D01*
X35532807Y-28086324D01*
X35589422Y-28082397D01*
X35649692Y-28081088D01*
X35712749Y-28082363D01*
G37*
G36*
X36170418Y-27285101D02*
G01*
X36077362Y-27285101D01*
X36034592Y-27316123D01*
X35992010Y-27345900D01*
X35949618Y-27374432D01*
X35907414Y-27401719D01*
X35865400Y-27427761D01*
X35809674Y-27460547D01*
X35754285Y-27491119D01*
X35699231Y-27519478D01*
X35644513Y-27545623D01*
X35630886Y-27551814D01*
X35576027Y-27575349D01*
X35520381Y-27597106D01*
X35463950Y-27617084D01*
X35406732Y-27635284D01*
X35348728Y-27651705D01*
X35289938Y-27666349D01*
X35230362Y-27679213D01*
X35170000Y-27690300D01*
X35170000Y-27822435D01*
X35231709Y-27807906D01*
X35291541Y-27792408D01*
X35349495Y-27775941D01*
X35405572Y-27758504D01*
X35459771Y-27740098D01*
X35512092Y-27720723D01*
X35562536Y-27700378D01*
X35611102Y-27679064D01*
X35659806Y-27655781D01*
X35710662Y-27629651D01*
X35763670Y-27600674D01*
X35818831Y-27568850D01*
X35861614Y-27543113D01*
X35905607Y-27515776D01*
X35950812Y-27486836D01*
X35997227Y-27456296D01*
X36044853Y-27424154D01*
X36060997Y-27413084D01*
X36060997Y-27951884D01*
X36170418Y-27951884D01*
X36170418Y-27285101D01*
G37*
G36*
X35904682Y-26873063D02*
G01*
X35810893Y-26873063D01*
X35810893Y-26995673D01*
X35170000Y-26995673D01*
X35170000Y-27112421D01*
X35810893Y-27112421D01*
X35810893Y-27210851D01*
X35904682Y-27210851D01*
X35904682Y-27112421D01*
X36031688Y-27112421D01*
X36082609Y-27107024D01*
X36128679Y-27088826D01*
X36156741Y-27066748D01*
X36185838Y-27023554D01*
X36199531Y-26973236D01*
X36201681Y-26939253D01*
X36197422Y-26889839D01*
X36194110Y-26873063D01*
X36090795Y-26873063D01*
X36092260Y-26913852D01*
X36081888Y-26963711D01*
X36039749Y-26993675D01*
X36018499Y-26995673D01*
X35904682Y-26995673D01*
X35904682Y-26873063D01*
G37*
G36*
X36170418Y-26177459D02*
G01*
X36060997Y-26177459D01*
X36060997Y-26592428D01*
X35767418Y-26631995D01*
X35793277Y-26589329D01*
X35813537Y-26538593D01*
X35824446Y-26484958D01*
X35826524Y-26447592D01*
X35823287Y-26395651D01*
X35813576Y-26347540D01*
X35794063Y-26296251D01*
X35765737Y-26250174D01*
X35734445Y-26214829D01*
X35691614Y-26179997D01*
X35643477Y-26153720D01*
X35590034Y-26135999D01*
X35540002Y-26127618D01*
X35495331Y-26125436D01*
X35438373Y-26128802D01*
X35385467Y-26138900D01*
X35336615Y-26155729D01*
X35291816Y-26179291D01*
X35251069Y-26209585D01*
X35238387Y-26221179D01*
X35204522Y-26259006D01*
X35177663Y-26300680D01*
X35157810Y-26346201D01*
X35144965Y-26395568D01*
X35139126Y-26448783D01*
X35138736Y-26467376D01*
X35141420Y-26519429D01*
X35150197Y-26570575D01*
X35150949Y-26573621D01*
X35165958Y-26622771D01*
X35179769Y-26653733D01*
X35208021Y-26694736D01*
X35224221Y-26711618D01*
X35262003Y-26743446D01*
X35272826Y-26750942D01*
X35317812Y-26773088D01*
X35325582Y-26776099D01*
X35369302Y-26790997D01*
X35404473Y-26797836D01*
X35404473Y-26674249D01*
X35351350Y-26653759D01*
X35309218Y-26625076D01*
X35273955Y-26581260D01*
X35255637Y-26534829D01*
X35248310Y-26480207D01*
X35248157Y-26470307D01*
X35253045Y-26416691D01*
X35267709Y-26369877D01*
X35295468Y-26325837D01*
X35309951Y-26310572D01*
X35352960Y-26279789D01*
X35399174Y-26261832D01*
X35452497Y-26253110D01*
X35478478Y-26252198D01*
X35530975Y-26255892D01*
X35582991Y-26268879D01*
X35627549Y-26291217D01*
X35653112Y-26311304D01*
X35686857Y-26352206D01*
X35708105Y-26401026D01*
X35716541Y-26451734D01*
X35717103Y-26470062D01*
X35713293Y-26520573D01*
X35699762Y-26568736D01*
X35674083Y-26612833D01*
X35641652Y-26650286D01*
X35638946Y-26653000D01*
X35638946Y-26767062D01*
X36170418Y-26692323D01*
X36170418Y-26177459D01*
G37*
G36*
X36060997Y-25689706D02*
G01*
X36057532Y-25738906D01*
X36043455Y-25788685D01*
X36012268Y-25831229D01*
X36005554Y-25836496D01*
X35958786Y-25861318D01*
X35906802Y-25874898D01*
X35857787Y-25879483D01*
X35857787Y-26003314D01*
X35913658Y-25999367D01*
X35964033Y-25990182D01*
X36022651Y-25969788D01*
X36071500Y-25940082D01*
X36110579Y-25901064D01*
X36139888Y-25852735D01*
X36159427Y-25795093D01*
X36167670Y-25745752D01*
X36170418Y-25691172D01*
X36167825Y-25640021D01*
X36158245Y-25585793D01*
X36141605Y-25537432D01*
X36113945Y-25489347D01*
X36096657Y-25468178D01*
X36056326Y-25432702D01*
X36009096Y-25407362D01*
X35962109Y-25393504D01*
X35909840Y-25387406D01*
X35893935Y-25387090D01*
X35839693Y-25391993D01*
X35792372Y-25406701D01*
X35745911Y-25436256D01*
X35708871Y-25479157D01*
X35684619Y-25526552D01*
X35665239Y-25479875D01*
X35639174Y-25437438D01*
X35604992Y-25402217D01*
X35598157Y-25397103D01*
X35550908Y-25372992D01*
X35502875Y-25361400D01*
X35452915Y-25357575D01*
X35446971Y-25357536D01*
X35396132Y-25360782D01*
X35341899Y-25372773D01*
X35293136Y-25393600D01*
X35249843Y-25423263D01*
X35222267Y-25449860D01*
X35189720Y-25493078D01*
X35165166Y-25542164D01*
X35150483Y-25588907D01*
X35141673Y-25639960D01*
X35138736Y-25695324D01*
X35141484Y-25750344D01*
X35149727Y-25800367D01*
X35169267Y-25859291D01*
X35198576Y-25909330D01*
X35237655Y-25950485D01*
X35286503Y-25982756D01*
X35345122Y-26006142D01*
X35395497Y-26017851D01*
X35451367Y-26024563D01*
X35451367Y-25900732D01*
X35397366Y-25893309D01*
X35347334Y-25876994D01*
X35304421Y-25849241D01*
X35297983Y-25843091D01*
X35269615Y-25802329D01*
X35254045Y-25754854D01*
X35248352Y-25703644D01*
X35248157Y-25691172D01*
X35252272Y-25639854D01*
X35266498Y-25590719D01*
X35293881Y-25546258D01*
X35300181Y-25539253D01*
X35340935Y-25507965D01*
X35391328Y-25489665D01*
X35445505Y-25484298D01*
X35497152Y-25489349D01*
X35547573Y-25508743D01*
X35585388Y-25542683D01*
X35610599Y-25591169D01*
X35621979Y-25642686D01*
X35624780Y-25691172D01*
X35623314Y-25743196D01*
X35623314Y-25758583D01*
X35732735Y-25758583D01*
X35735361Y-25703872D01*
X35741654Y-25650505D01*
X35752931Y-25602145D01*
X35766685Y-25569539D01*
X35801965Y-25533484D01*
X35852420Y-25516516D01*
X35889783Y-25513852D01*
X35940263Y-25519422D01*
X35986379Y-25538204D01*
X36014836Y-25560990D01*
X36042965Y-25601187D01*
X36058112Y-25651070D01*
X36060997Y-25689706D01*
G37*
G36*
X35904682Y-24925959D02*
G01*
X35810893Y-24925959D01*
X35810893Y-25048569D01*
X35170000Y-25048569D01*
X35170000Y-25165317D01*
X35810893Y-25165317D01*
X35810893Y-25263747D01*
X35904682Y-25263747D01*
X35904682Y-25165317D01*
X36031688Y-25165317D01*
X36082609Y-25159920D01*
X36128679Y-25141722D01*
X36156741Y-25119644D01*
X36185838Y-25076450D01*
X36199531Y-25026132D01*
X36201681Y-24992149D01*
X36197422Y-24942735D01*
X36194110Y-24925959D01*
X36090795Y-24925959D01*
X36092260Y-24966748D01*
X36081888Y-25016607D01*
X36039749Y-25046571D01*
X36018499Y-25048569D01*
X35904682Y-25048569D01*
X35904682Y-24925959D01*
G37*
G36*
X35513893Y-24316329D02*
G01*
X36170418Y-24316329D01*
X36170418Y-24407676D01*
X35533921Y-24860746D01*
X35404473Y-24860746D01*
X35404473Y-24752302D01*
X35513893Y-24752302D01*
X35956217Y-24439916D01*
X35513893Y-24439916D01*
X35513893Y-24752302D01*
X35404473Y-24752302D01*
X35404473Y-24439916D01*
X35170000Y-24439916D01*
X35170000Y-24316329D01*
X35404473Y-24316329D01*
X35404473Y-24168562D01*
X35513893Y-24168562D01*
X35513893Y-24316329D01*
G37*
%LPC*%
D11*
X42000000Y-26000000D02*
X52000000Y-26000000D01*
X52000000Y-32000000D01*
X42000000Y-32000000D01*
X42000000Y-26000000D01*
G36*
X42000000Y-26000000D02*
G01*
X52000000Y-26000000D01*
X52000000Y-32000000D01*
X42000000Y-32000000D01*
X42000000Y-26000000D01*
G37*
D12*
X42000000Y-39250000D03*
D13*
X40730000Y-37730000D03*
X43270000Y-37730000D03*
D12*
X37000000Y-39250000D03*
D13*
X35730000Y-37730000D03*
X38270000Y-37730000D03*
D12*
X52000000Y-39250000D03*
D13*
X50730000Y-37730000D03*
X53270000Y-37730000D03*
D12*
X57000000Y-39250000D03*
D13*
X55730000Y-37730000D03*
X58270000Y-37730000D03*
%LPD*%
M02*
