G04 #@! TF.GenerationSoftware,KiCad,Pcbnew,8.0.8*
G04 #@! TF.CreationDate,2026-01-04T09:20:55-05:00*
G04 #@! TF.ProjectId,project-hw-60v-dcdc,70726f6a-6563-4742-9d68-772d3630762d,rev?*
G04 #@! TF.SameCoordinates,Original*
G04 #@! TF.FileFunction,Copper,L1,Top*
G04 #@! TF.FilePolarity,Positive*
%FSLAX46Y46*%
G04 Gerber Fmt 4.6, Leading zero omitted, Abs format (unit mm)*
G04 Created by KiCad (PCBNEW 8.0.8) date 2026-01-04 09:20:55*
%MOMM*%
%LPD*%
G01*
G04 APERTURE LIST*
G04 Aperture macros list*
%AMRoundRect*
0 Rectangle with rounded corners*
0 $1 Rounding radius*
0 $2 $3 $4 $5 $6 $7 $8 $9 X,Y pos of 4 corners*
0 Add a 4 corners polygon primitive as box body*
4,1,4,$2,$3,$4,$5,$6,$7,$8,$9,$2,$3,0*
0 Add four circle primitives for the rounded corners*
1,1,$1+$1,$2,$3*
1,1,$1+$1,$4,$5*
1,1,$1+$1,$6,$7*
1,1,$1+$1,$8,$9*
0 Add four rect primitives between the rounded corners*
20,1,$1+$1,$2,$3,$4,$5,0*
20,1,$1+$1,$4,$5,$6,$7,0*
20,1,$1+$1,$6,$7,$8,$9,0*
20,1,$1+$1,$8,$9,$2,$3,0*%
G04 Aperture macros list end*
G04 #@! TA.AperFunction,SMDPad,CuDef*
%ADD10RoundRect,0.250000X-1.100000X0.325000X-1.100000X-0.325000X1.100000X-0.325000X1.100000X0.325000X0*%
G04 #@! TD*
G04 #@! TA.AperFunction,SMDPad,CuDef*
%ADD11RoundRect,0.225000X0.250000X-0.225000X0.250000X0.225000X-0.250000X0.225000X-0.250000X-0.225000X0*%
G04 #@! TD*
G04 #@! TA.AperFunction,SMDPad,CuDef*
%ADD12RoundRect,0.150000X-0.375000X-0.150000X0.375000X-0.150000X0.375000X0.150000X-0.375000X0.150000X0*%
G04 #@! TD*
G04 #@! TA.AperFunction,SMDPad,CuDef*
%ADD13RoundRect,0.480000X1.520000X-1.770000X1.520000X1.770000X-1.520000X1.770000X-1.520000X-1.770000X0*%
G04 #@! TD*
G04 #@! TA.AperFunction,ComponentPad*
%ADD14C,1.700000*%
G04 #@! TD*
G04 #@! TA.AperFunction,SMDPad,CuDef*
%ADD15RoundRect,0.125000X0.175000X-0.125000X0.175000X0.125000X-0.175000X0.125000X-0.175000X-0.125000X0*%
G04 #@! TD*
G04 #@! TA.AperFunction,SMDPad,CuDef*
%ADD16RoundRect,0.200000X0.275000X-0.200000X0.275000X0.200000X-0.275000X0.200000X-0.275000X-0.200000X0*%
G04 #@! TD*
G04 #@! TA.AperFunction,SMDPad,CuDef*
%ADD17RoundRect,0.475000X-0.475000X-2.075000X0.475000X-2.075000X0.475000X2.075000X-0.475000X2.075000X0*%
G04 #@! TD*
G04 #@! TA.AperFunction,SMDPad,CuDef*
%ADD18RoundRect,0.200000X0.250000X0.200000X-0.250000X0.200000X-0.250000X-0.200000X0.250000X-0.200000X0*%
G04 #@! TD*
G04 #@! TA.AperFunction,SMDPad,CuDef*
%ADD19RoundRect,0.200000X-0.200000X-0.275000X0.200000X-0.275000X0.200000X0.275000X-0.200000X0.275000X0*%
G04 #@! TD*
G04 #@! TA.AperFunction,SMDPad,CuDef*
%ADD20RoundRect,0.225000X-0.250000X0.225000X-0.250000X-0.225000X0.250000X-0.225000X0.250000X0.225000X0*%
G04 #@! TD*
G04 #@! TA.AperFunction,SMDPad,CuDef*
%ADD21RoundRect,0.200000X-0.275000X0.200000X-0.275000X-0.200000X0.275000X-0.200000X0.275000X0.200000X0*%
G04 #@! TD*
G04 #@! TA.AperFunction,ViaPad*
%ADD22C,0.600000*%
G04 #@! TD*
G04 #@! TA.AperFunction,Conductor*
%ADD23C,0.500000*%
G04 #@! TD*
G04 #@! TA.AperFunction,Conductor*
%ADD24C,0.250000*%
G04 #@! TD*
G04 APERTURE END LIST*
D10*
X52000000Y-31025000D03*
X52000000Y-33975000D03*
D11*
X49500000Y-26275000D03*
X49500000Y-24725000D03*
D10*
X43500000Y-30525000D03*
X43500000Y-33475000D03*
D12*
X46700000Y-28050000D03*
X46700000Y-29000000D03*
X46700000Y-29950000D03*
X49300000Y-29950000D03*
X49300000Y-29000000D03*
X49300000Y-28050000D03*
D10*
X55500000Y-31025000D03*
X55500000Y-33975000D03*
D13*
X42000000Y-39250000D03*
D14*
X40730000Y-37730000D03*
X43270000Y-37730000D03*
D13*
X37000000Y-39250000D03*
D14*
X35730000Y-37730000D03*
X38270000Y-37730000D03*
D13*
X52000000Y-39250000D03*
D14*
X50730000Y-37730000D03*
X53270000Y-37730000D03*
D15*
X40000000Y-24300000D03*
X40000000Y-25700000D03*
D16*
X46500000Y-26325000D03*
X46500000Y-24675000D03*
D17*
X51900000Y-26500000D03*
X56100000Y-26500000D03*
D18*
X38100000Y-25950000D03*
X38100000Y-24050000D03*
X35900000Y-25000000D03*
D19*
X38175000Y-28000000D03*
X39825000Y-28000000D03*
D20*
X46500000Y-31725000D03*
X46500000Y-33275000D03*
D13*
X57000000Y-39250000D03*
D14*
X55730000Y-37730000D03*
X58270000Y-37730000D03*
D10*
X40000000Y-30525000D03*
X40000000Y-33475000D03*
D21*
X45000000Y-24675000D03*
X45000000Y-26325000D03*
D22*
X47750000Y-33750000D03*
X47000000Y-34500000D03*
X46000000Y-34500000D03*
X41000000Y-35000000D03*
X53000000Y-35500000D03*
X48000000Y-26500000D03*
X48000000Y-24500000D03*
X49000000Y-31000000D03*
X40000000Y-35000000D03*
X47750000Y-33000000D03*
X42500000Y-35000000D03*
X48000000Y-30000000D03*
X48000000Y-29000000D03*
X39500000Y-27000000D03*
X48000000Y-25500000D03*
X43500000Y-35000000D03*
X48000000Y-28000000D03*
X50000000Y-33000000D03*
X54000000Y-35500000D03*
X50000000Y-34000000D03*
X44500000Y-35000000D03*
X49750000Y-31000000D03*
X46000000Y-23000000D03*
X56000000Y-23500000D03*
D23*
X49300000Y-28050000D02*
X49300000Y-26475000D01*
X49300000Y-26475000D02*
X49500000Y-26275000D01*
D24*
X45000000Y-24000000D02*
X46000000Y-23000000D01*
X45000000Y-24675000D02*
X45000000Y-24000000D01*
X38100000Y-25950000D02*
X38350000Y-25700000D01*
X38175000Y-26025000D02*
X38100000Y-25950000D01*
X38350000Y-25700000D02*
X40000000Y-25700000D01*
X38175000Y-28000000D02*
X38175000Y-26025000D01*
G04 #@! TA.AperFunction,Conductor*
G36*
X59442539Y-23019685D02*
G01*
X59488294Y-23072489D01*
X59499500Y-23124000D01*
X59499500Y-40993038D01*
X59498720Y-41006923D01*
X59488540Y-41097264D01*
X59482362Y-41124333D01*
X59454648Y-41203537D01*
X59442600Y-41228555D01*
X59397957Y-41299604D01*
X59380644Y-41321313D01*
X59321313Y-41380644D01*
X59299604Y-41397957D01*
X59228555Y-41442600D01*
X59203537Y-41454648D01*
X59124333Y-41482362D01*
X59097264Y-41488540D01*
X59017075Y-41497576D01*
X59006921Y-41498720D01*
X58993038Y-41499500D01*
X55124000Y-41499500D01*
X55056961Y-41479815D01*
X55011206Y-41427011D01*
X55000000Y-41375500D01*
X55000000Y-36817608D01*
X55001186Y-36800502D01*
X55016648Y-36689490D01*
X55025994Y-36656587D01*
X55067711Y-36561947D01*
X55085688Y-36532859D01*
X55151681Y-36453220D01*
X55176925Y-36430151D01*
X55269310Y-36366668D01*
X55284075Y-36357961D01*
X56000000Y-36000000D01*
X56723607Y-35638197D01*
X56723609Y-35638195D01*
X57000000Y-35500000D01*
X57000000Y-35004265D01*
X57019685Y-34937226D01*
X57058903Y-34898727D01*
X57068656Y-34892712D01*
X57192712Y-34768656D01*
X57284814Y-34619334D01*
X57339999Y-34452797D01*
X57350500Y-34350009D01*
X57350499Y-33599992D01*
X57339999Y-33497203D01*
X57284814Y-33330666D01*
X57192712Y-33181344D01*
X57068656Y-33057288D01*
X57048019Y-33044559D01*
X57000000Y-33014940D01*
X57000000Y-33000000D01*
X56966808Y-32994468D01*
X56919336Y-32965187D01*
X56919331Y-32965185D01*
X56917862Y-32964698D01*
X56752797Y-32910001D01*
X56752795Y-32910000D01*
X56650016Y-32899500D01*
X56407260Y-32899500D01*
X56386881Y-32897813D01*
X54000000Y-32500000D01*
X53666124Y-32444354D01*
X51426412Y-32071068D01*
X51409477Y-32067005D01*
X51300924Y-32032745D01*
X51269582Y-32017749D01*
X51182142Y-31959602D01*
X51156190Y-31936498D01*
X51088314Y-31856372D01*
X51069792Y-31826977D01*
X51026807Y-31731159D01*
X51017171Y-31697788D01*
X51001223Y-31585078D01*
X51000000Y-31567706D01*
X51000000Y-30508125D01*
X51001061Y-30491940D01*
X51014906Y-30386776D01*
X51023284Y-30355508D01*
X51060740Y-30265081D01*
X51076923Y-30237050D01*
X51136513Y-30159392D01*
X51159392Y-30136513D01*
X51237050Y-30076923D01*
X51265079Y-30060740D01*
X51355509Y-30023283D01*
X51386775Y-30014906D01*
X51491941Y-30001061D01*
X51508126Y-30000000D01*
X53566352Y-30000000D01*
X54000000Y-30000000D01*
X54937420Y-23438059D01*
X54941164Y-23420777D01*
X54973670Y-23309738D01*
X54988313Y-23277613D01*
X55045963Y-23187782D01*
X55069069Y-23161088D01*
X55149702Y-23091155D01*
X55179398Y-23072056D01*
X55276473Y-23027692D01*
X55310349Y-23017739D01*
X55407309Y-23003789D01*
X55424863Y-23001264D01*
X55442520Y-23000000D01*
X59375500Y-23000000D01*
X59442539Y-23019685D01*
G37*
G04 #@! TD.AperFunction*
G04 #@! TA.AperFunction,Conductor*
G36*
X45504982Y-22520185D02*
G01*
X45550737Y-22572989D01*
X45560681Y-22642147D01*
X45536318Y-22699987D01*
X45519139Y-22722373D01*
X45519138Y-22722376D01*
X45463671Y-22856287D01*
X45463670Y-22856291D01*
X45446572Y-22986153D01*
X45418305Y-23050049D01*
X45411314Y-23057647D01*
X44769438Y-23699525D01*
X44699526Y-23769436D01*
X44650091Y-23855059D01*
X44650091Y-23855060D01*
X44650090Y-23855062D01*
X44644952Y-23874237D01*
X44624499Y-23950567D01*
X44623439Y-23958625D01*
X44620580Y-23958248D01*
X44604815Y-24011939D01*
X44552011Y-24057694D01*
X44541456Y-24061941D01*
X44512118Y-24072207D01*
X44402850Y-24152850D01*
X44322207Y-24262117D01*
X44322206Y-24262119D01*
X44277353Y-24390298D01*
X44277353Y-24390300D01*
X44274500Y-24420730D01*
X44274500Y-24929269D01*
X44277353Y-24959699D01*
X44277353Y-24959701D01*
X44322206Y-25087880D01*
X44322207Y-25087882D01*
X44402850Y-25197150D01*
X44512118Y-25277793D01*
X44546109Y-25289687D01*
X44640299Y-25322646D01*
X44670730Y-25325500D01*
X44670734Y-25325500D01*
X45329270Y-25325500D01*
X45359699Y-25322646D01*
X45359701Y-25322646D01*
X45423790Y-25300219D01*
X45487882Y-25277793D01*
X45597150Y-25197150D01*
X45677793Y-25087882D01*
X45677792Y-25087882D01*
X45680943Y-25083614D01*
X45736590Y-25041363D01*
X45806246Y-25035904D01*
X45867796Y-25068971D01*
X45891198Y-25100952D01*
X45897360Y-25113046D01*
X45897363Y-25113050D01*
X45986949Y-25202636D01*
X45986953Y-25202639D01*
X46099855Y-25260166D01*
X46193514Y-25274999D01*
X46374999Y-25274999D01*
X46625000Y-25274999D01*
X46806479Y-25274999D01*
X46900149Y-25260164D01*
X46900155Y-25260162D01*
X47013041Y-25202643D01*
X47013050Y-25202636D01*
X47102636Y-25113050D01*
X47102639Y-25113046D01*
X47160166Y-25000144D01*
X47175000Y-24906486D01*
X47175000Y-24800000D01*
X46625000Y-24800000D01*
X46625000Y-25274999D01*
X46374999Y-25274999D01*
X46375000Y-25274998D01*
X46375000Y-24550000D01*
X46625000Y-24550000D01*
X47174999Y-24550000D01*
X47174999Y-24443520D01*
X47160164Y-24349850D01*
X47160162Y-24349844D01*
X47102643Y-24236958D01*
X47102636Y-24236949D01*
X47013050Y-24147363D01*
X47013046Y-24147360D01*
X46900144Y-24089833D01*
X46806486Y-24075000D01*
X46625000Y-24075000D01*
X46625000Y-24550000D01*
X46375000Y-24550000D01*
X46375000Y-24075000D01*
X46193520Y-24075000D01*
X46099849Y-24089835D01*
X46099844Y-24089837D01*
X45986958Y-24147356D01*
X45986949Y-24147363D01*
X45897363Y-24236949D01*
X45897359Y-24236954D01*
X45891197Y-24249049D01*
X45843221Y-24299844D01*
X45775400Y-24316638D01*
X45709266Y-24294099D01*
X45680943Y-24266386D01*
X45659221Y-24236954D01*
X45597150Y-24152850D01*
X45587097Y-24145430D01*
X45544849Y-24089785D01*
X45539392Y-24020128D01*
X45572459Y-23958579D01*
X45572855Y-23958181D01*
X45942352Y-23588683D01*
X46003673Y-23555200D01*
X46013839Y-23553427D01*
X46143709Y-23536330D01*
X46277625Y-23480861D01*
X46392621Y-23392621D01*
X46480861Y-23277625D01*
X46536330Y-23143709D01*
X46555250Y-23000000D01*
X46536330Y-22856291D01*
X46480861Y-22722375D01*
X46480860Y-22722374D01*
X46480860Y-22722373D01*
X46463682Y-22699987D01*
X46438487Y-22634818D01*
X46452525Y-22566373D01*
X46501338Y-22516383D01*
X46562057Y-22500500D01*
X54726988Y-22500500D01*
X54794027Y-22520185D01*
X54839782Y-22572989D01*
X54849726Y-22642147D01*
X54820701Y-22705703D01*
X54808233Y-22718176D01*
X54737876Y-22779195D01*
X54737844Y-22779225D01*
X54686881Y-22830238D01*
X54686854Y-22830267D01*
X54663764Y-22856942D01*
X54663748Y-22856962D01*
X54620536Y-22914755D01*
X54562892Y-23004577D01*
X54562882Y-23004593D01*
X54528348Y-23067941D01*
X54528335Y-23067968D01*
X54513711Y-23100050D01*
X54513703Y-23100070D01*
X54513700Y-23100077D01*
X54488531Y-23167716D01*
X54488528Y-23167723D01*
X54488526Y-23167731D01*
X54456028Y-23278740D01*
X54447127Y-23313738D01*
X54443381Y-23331026D01*
X54437000Y-23366576D01*
X53576792Y-29388036D01*
X53547824Y-29451618D01*
X53489080Y-29489446D01*
X53454038Y-29494500D01*
X53293867Y-29494500D01*
X53226828Y-29474815D01*
X53181073Y-29422011D01*
X53171129Y-29352853D01*
X53179306Y-29323048D01*
X53212765Y-29242268D01*
X53212766Y-29242265D01*
X53223507Y-29210625D01*
X53223509Y-29210620D01*
X53231887Y-29179353D01*
X53238407Y-29146576D01*
X53252253Y-29041412D01*
X53253892Y-29024772D01*
X53254953Y-29008586D01*
X53255500Y-28991874D01*
X53255500Y-24508125D01*
X53254953Y-24491413D01*
X53253892Y-24475227D01*
X53252253Y-24458587D01*
X53238407Y-24353423D01*
X53231887Y-24320646D01*
X53223509Y-24289379D01*
X53212766Y-24257733D01*
X53212762Y-24257724D01*
X53175317Y-24167323D01*
X53175310Y-24167307D01*
X53175310Y-24167306D01*
X53160528Y-24137330D01*
X53144343Y-24109297D01*
X53125776Y-24081509D01*
X53066193Y-24003859D01*
X53066181Y-24003846D01*
X53066177Y-24003840D01*
X53044160Y-23978735D01*
X53044151Y-23978726D01*
X53021268Y-23955843D01*
X52996142Y-23933809D01*
X52918508Y-23874237D01*
X52918490Y-23874223D01*
X52918488Y-23874222D01*
X52890699Y-23855654D01*
X52890693Y-23855650D01*
X52890681Y-23855643D01*
X52862675Y-23839475D01*
X52862665Y-23839469D01*
X52832693Y-23824689D01*
X52832691Y-23824688D01*
X52832681Y-23824683D01*
X52832675Y-23824681D01*
X52742275Y-23787236D01*
X52742265Y-23787232D01*
X52712679Y-23777188D01*
X52687453Y-23765313D01*
X52683699Y-23762998D01*
X52683696Y-23762996D01*
X52522709Y-23709651D01*
X52423346Y-23699500D01*
X51376662Y-23699500D01*
X51376644Y-23699501D01*
X51277292Y-23709650D01*
X51277289Y-23709651D01*
X51191118Y-23738206D01*
X51152114Y-23744500D01*
X49508126Y-23744500D01*
X49494546Y-23744944D01*
X49491410Y-23745047D01*
X49475202Y-23746109D01*
X49458599Y-23747745D01*
X49353430Y-23761591D01*
X49320654Y-23768110D01*
X49289376Y-23776490D01*
X49257738Y-23787229D01*
X49167311Y-23824684D01*
X49137320Y-23839474D01*
X49109298Y-23855654D01*
X49081517Y-23874216D01*
X49081489Y-23874237D01*
X49003849Y-23933813D01*
X48978729Y-23955843D01*
X48955843Y-23978729D01*
X48933813Y-24003849D01*
X48874233Y-24081493D01*
X48874230Y-24081498D01*
X48855645Y-24109313D01*
X48839463Y-24137343D01*
X48824687Y-24167307D01*
X48787236Y-24257723D01*
X48787236Y-24257724D01*
X48776487Y-24289386D01*
X48768110Y-24320652D01*
X48768109Y-24320655D01*
X48761593Y-24353421D01*
X48747745Y-24458603D01*
X48746109Y-24475201D01*
X48745047Y-24491409D01*
X48744500Y-24508138D01*
X48744500Y-24741860D01*
X48745047Y-24758589D01*
X48746109Y-24774797D01*
X48747745Y-24791395D01*
X48761593Y-24896577D01*
X48768112Y-24929356D01*
X48770277Y-24937436D01*
X48774500Y-24969517D01*
X48774500Y-24995479D01*
X48774501Y-24995491D01*
X48780587Y-25052114D01*
X48803316Y-25113050D01*
X48828372Y-25180226D01*
X48910313Y-25289687D01*
X49019774Y-25371628D01*
X49052458Y-25383818D01*
X49108390Y-25425687D01*
X49132808Y-25491151D01*
X49117957Y-25559424D01*
X49068552Y-25608830D01*
X49052461Y-25616179D01*
X49019774Y-25628371D01*
X48910313Y-25710313D01*
X48828373Y-25819771D01*
X48780587Y-25947889D01*
X48774500Y-26004498D01*
X48774500Y-26545481D01*
X48774501Y-26545490D01*
X48780587Y-26602114D01*
X48780588Y-26602118D01*
X48791680Y-26631852D01*
X48799500Y-26675189D01*
X48799500Y-27438466D01*
X48779815Y-27505505D01*
X48731796Y-27548950D01*
X48686656Y-27571950D01*
X48596954Y-27661652D01*
X48596951Y-27661657D01*
X48596950Y-27661658D01*
X48579798Y-27695321D01*
X48539352Y-27774698D01*
X48524500Y-27868475D01*
X48524500Y-28231517D01*
X48533098Y-28285805D01*
X48539354Y-28325304D01*
X48596950Y-28438342D01*
X48596953Y-28438345D01*
X48602689Y-28446241D01*
X48601334Y-28447224D01*
X48629411Y-28498642D01*
X48624427Y-28568334D01*
X48601987Y-28603249D01*
X48602689Y-28603759D01*
X48596951Y-28611657D01*
X48539352Y-28724698D01*
X48524500Y-28818475D01*
X48524500Y-29181517D01*
X48534122Y-29242266D01*
X48539354Y-29275304D01*
X48596950Y-29388342D01*
X48596952Y-29388344D01*
X48596954Y-29388347D01*
X48686652Y-29478045D01*
X48686654Y-29478046D01*
X48686658Y-29478050D01*
X48799696Y-29535646D01*
X48799698Y-29535647D01*
X48871583Y-29547031D01*
X48893481Y-29550500D01*
X48941315Y-29550499D01*
X49008353Y-29570182D01*
X49016801Y-29576123D01*
X49017384Y-29576570D01*
X49025973Y-29582881D01*
X49034419Y-29588819D01*
X49034419Y-29588820D01*
X49034421Y-29588821D01*
X49034424Y-29588823D01*
X49109395Y-29624965D01*
X49176434Y-29644650D01*
X49176439Y-29644650D01*
X49176440Y-29644651D01*
X49188071Y-29646323D01*
X49248419Y-29655000D01*
X49676656Y-29655000D01*
X49696050Y-29656526D01*
X49700963Y-29657304D01*
X49737862Y-29669292D01*
X49797347Y-29699602D01*
X49797347Y-29699601D01*
X49827337Y-29714882D01*
X49842697Y-29720479D01*
X49853216Y-29725465D01*
X49920255Y-29745150D01*
X49920259Y-29745150D01*
X49920261Y-29745151D01*
X49931892Y-29746823D01*
X49992240Y-29755500D01*
X50560039Y-29755500D01*
X50627078Y-29775185D01*
X50672833Y-29827989D01*
X50682777Y-29897147D01*
X50663141Y-29948391D01*
X50639140Y-29984310D01*
X50639137Y-29984314D01*
X50622960Y-30012336D01*
X50593720Y-30071631D01*
X50556266Y-30162053D01*
X50556262Y-30162064D01*
X50535008Y-30224675D01*
X50526630Y-30255944D01*
X50513731Y-30320795D01*
X50508374Y-30361478D01*
X50484704Y-30419596D01*
X50456203Y-30457670D01*
X50456202Y-30457671D01*
X50405910Y-30592513D01*
X50405909Y-30592517D01*
X50399500Y-30652127D01*
X50399500Y-30652134D01*
X50399500Y-30652135D01*
X50399500Y-31397870D01*
X50399501Y-31397876D01*
X50405908Y-31457483D01*
X50456202Y-31592328D01*
X50456206Y-31592335D01*
X50480935Y-31625369D01*
X50504445Y-31682306D01*
X50516656Y-31768602D01*
X50531509Y-31838013D01*
X50541149Y-31871398D01*
X50565591Y-31938065D01*
X50608571Y-32033873D01*
X50608574Y-32033878D01*
X50608576Y-32033883D01*
X50612463Y-32041136D01*
X50642114Y-32096462D01*
X50660637Y-32125859D01*
X50680883Y-32153478D01*
X50702605Y-32183112D01*
X50754235Y-32244060D01*
X50770482Y-32263239D01*
X50820052Y-32314044D01*
X50820065Y-32314056D01*
X50846017Y-32337160D01*
X50902229Y-32380528D01*
X50989669Y-32438675D01*
X51051406Y-32473742D01*
X51082748Y-32488738D01*
X51148782Y-32514806D01*
X51181668Y-32525185D01*
X51257321Y-32549062D01*
X51257331Y-32549065D01*
X51257335Y-32549066D01*
X51291545Y-32558556D01*
X51308480Y-32562619D01*
X51343308Y-32569690D01*
X53583020Y-32942976D01*
X53916896Y-32998622D01*
X56303777Y-33396435D01*
X56345178Y-33401590D01*
X56350938Y-33402066D01*
X56365564Y-33403278D01*
X56407252Y-33405000D01*
X56407260Y-33405000D01*
X56617942Y-33405000D01*
X56630487Y-33405636D01*
X56632800Y-33405872D01*
X56659233Y-33411527D01*
X56678823Y-33418018D01*
X56694407Y-33423183D01*
X56714972Y-33432134D01*
X56716078Y-33432741D01*
X56730857Y-33442818D01*
X56731024Y-33442588D01*
X56734618Y-33445176D01*
X56740662Y-33448904D01*
X56763245Y-33466761D01*
X56783238Y-33486754D01*
X56801096Y-33509339D01*
X56815946Y-33533415D01*
X56828112Y-33559506D01*
X56838469Y-33590760D01*
X56844121Y-33617150D01*
X56844356Y-33619448D01*
X56844999Y-33632063D01*
X56844999Y-34317933D01*
X56844356Y-34330542D01*
X56844121Y-34332841D01*
X56838470Y-34359236D01*
X56828113Y-34390491D01*
X56815946Y-34416583D01*
X56801096Y-34440659D01*
X56783238Y-34463244D01*
X56727195Y-34519287D01*
X56715977Y-34529224D01*
X56704787Y-34537988D01*
X56704784Y-34537990D01*
X56665567Y-34576489D01*
X56665560Y-34576497D01*
X56594433Y-34663928D01*
X56534663Y-34794802D01*
X56514976Y-34861847D01*
X56494500Y-35004266D01*
X56494500Y-35110948D01*
X56474815Y-35177987D01*
X56425954Y-35221857D01*
X55773934Y-35547867D01*
X55058016Y-35905824D01*
X55027296Y-35922535D01*
X55012548Y-35931231D01*
X54983012Y-35950057D01*
X54890645Y-36013527D01*
X54890641Y-36013531D01*
X54835921Y-36056993D01*
X54835918Y-36056996D01*
X54810676Y-36080063D01*
X54810675Y-36080064D01*
X54762450Y-36130681D01*
X54762443Y-36130689D01*
X54696461Y-36210316D01*
X54696449Y-36210331D01*
X54655677Y-36267113D01*
X54637705Y-36296193D01*
X54605155Y-36358053D01*
X54563436Y-36452699D01*
X54539729Y-36518467D01*
X54530383Y-36551373D01*
X54530379Y-36551388D01*
X54515981Y-36619753D01*
X54515981Y-36619756D01*
X54500519Y-36730768D01*
X54500517Y-36730785D01*
X54500516Y-36730794D01*
X54496897Y-36765531D01*
X54495712Y-36782624D01*
X54494500Y-36817619D01*
X54494500Y-41375500D01*
X54474815Y-41442539D01*
X54422011Y-41488294D01*
X54370500Y-41499500D01*
X39629500Y-41499500D01*
X39562461Y-41479815D01*
X39516706Y-41427011D01*
X39505500Y-41375500D01*
X39505500Y-34674509D01*
X39505500Y-34674499D01*
X39493947Y-34567042D01*
X39482740Y-34515527D01*
X39448605Y-34412977D01*
X39370814Y-34291940D01*
X39325057Y-34239137D01*
X39216319Y-34144920D01*
X39216318Y-34144919D01*
X39085440Y-34085154D01*
X39018403Y-34065472D01*
X39018399Y-34065471D01*
X39018402Y-34065471D01*
X39018390Y-34065469D01*
X38950242Y-34055673D01*
X38941605Y-34051728D01*
X38879011Y-34045331D01*
X38876527Y-34045027D01*
X38873306Y-34044749D01*
X38867167Y-34044122D01*
X38840762Y-34038470D01*
X38809507Y-34028113D01*
X38783415Y-34015946D01*
X38759339Y-34001096D01*
X38736754Y-33983238D01*
X38716760Y-33963244D01*
X38698901Y-33940657D01*
X38684051Y-33916580D01*
X38671886Y-33890493D01*
X38661528Y-33859237D01*
X38655872Y-33832801D01*
X38655637Y-33830500D01*
X38655000Y-33817942D01*
X38655000Y-33132055D01*
X38655636Y-33119511D01*
X38655872Y-33117195D01*
X38661525Y-33090768D01*
X38671885Y-33059504D01*
X38684048Y-33033421D01*
X38698906Y-33009331D01*
X38716757Y-32986756D01*
X38752597Y-32950916D01*
X38767808Y-32937980D01*
X38771455Y-32935354D01*
X38798604Y-32912679D01*
X38850624Y-32862500D01*
X38930559Y-32742868D01*
X38960714Y-32679840D01*
X38960719Y-32679829D01*
X38960720Y-32679824D01*
X38960723Y-32679818D01*
X38988078Y-32592450D01*
X39026894Y-32534354D01*
X39090957Y-32506467D01*
X39106413Y-32505500D01*
X44739254Y-32505500D01*
X44806293Y-32525185D01*
X44826929Y-32541814D01*
X44990358Y-32705243D01*
X45014497Y-32727852D01*
X45026692Y-32738547D01*
X45052267Y-32759536D01*
X45052275Y-32759542D01*
X45136423Y-32824112D01*
X45136438Y-32824123D01*
X45174051Y-32849254D01*
X45191412Y-32860854D01*
X45219446Y-32877039D01*
X45278746Y-32906282D01*
X45278751Y-32906284D01*
X45278755Y-32906286D01*
X45369160Y-32943733D01*
X45369162Y-32943733D01*
X45369171Y-32943737D01*
X45412409Y-32958414D01*
X45431763Y-32964984D01*
X45431769Y-32964985D01*
X45431779Y-32964989D01*
X45463045Y-32973367D01*
X45527900Y-32986268D01*
X45573756Y-32992305D01*
X45573759Y-32992306D01*
X45573759Y-32992305D01*
X45607468Y-32996743D01*
X45620029Y-32998397D01*
X45620029Y-32998398D01*
X45633053Y-33000113D01*
X45659100Y-33002678D01*
X45665969Y-33003355D01*
X45665974Y-33003355D01*
X45665981Y-33003356D01*
X45682166Y-33004417D01*
X45715233Y-33005500D01*
X45715247Y-33005500D01*
X45724802Y-33005500D01*
X45724808Y-33005500D01*
X45734713Y-33005257D01*
X45749581Y-33004893D01*
X45759497Y-33004406D01*
X45761703Y-33004298D01*
X45786391Y-33002480D01*
X45926121Y-32968170D01*
X45978431Y-32947059D01*
X45978430Y-32947058D01*
X46003782Y-32936827D01*
X46004567Y-32935872D01*
X46024952Y-32924633D01*
X46056179Y-32911065D01*
X46056180Y-32911064D01*
X46056188Y-32911061D01*
X46144060Y-32856858D01*
X46170140Y-32844697D01*
X46195508Y-32836291D01*
X46234504Y-32830000D01*
X46825762Y-32830000D01*
X46826657Y-32829511D01*
X46851806Y-32826679D01*
X46862451Y-32826573D01*
X46862731Y-32826571D01*
X46917268Y-32819902D01*
X46917270Y-32819901D01*
X46917274Y-32819901D01*
X47026921Y-32793835D01*
X47154013Y-32726388D01*
X47198162Y-32694150D01*
X47205386Y-32690121D01*
X47210441Y-32685185D01*
X47210442Y-32685185D01*
X47313384Y-32584664D01*
X47324115Y-32570679D01*
X47332216Y-32558556D01*
X47360845Y-32515709D01*
X47360845Y-32515708D01*
X47360849Y-32515703D01*
X47377034Y-32487670D01*
X47406280Y-32428364D01*
X47443736Y-32337937D01*
X47464990Y-32275325D01*
X47473368Y-32244058D01*
X47486268Y-32179209D01*
X47500114Y-32074045D01*
X47503356Y-32041125D01*
X47504417Y-32024939D01*
X47505500Y-31991874D01*
X47505500Y-29008125D01*
X47504417Y-28975060D01*
X47503356Y-28958874D01*
X47500114Y-28925955D01*
X47495687Y-28892330D01*
X47480372Y-28818780D01*
X47480367Y-28818761D01*
X47471714Y-28788631D01*
X47468422Y-28773799D01*
X47460646Y-28724696D01*
X47403050Y-28611658D01*
X47403045Y-28611653D01*
X47397311Y-28603759D01*
X47398665Y-28602774D01*
X47370590Y-28551368D01*
X47375569Y-28481676D01*
X47398013Y-28446751D01*
X47397311Y-28446241D01*
X47403042Y-28438349D01*
X47403050Y-28438342D01*
X47460646Y-28325304D01*
X47460646Y-28325302D01*
X47460647Y-28325301D01*
X47475499Y-28231524D01*
X47475500Y-28231519D01*
X47475499Y-27868482D01*
X47460646Y-27774696D01*
X47403050Y-27661658D01*
X47403046Y-27661654D01*
X47403045Y-27661652D01*
X47313344Y-27571951D01*
X47306611Y-27567059D01*
X47263947Y-27511727D01*
X47255500Y-27466743D01*
X47255500Y-26508138D01*
X47255500Y-26508125D01*
X47254953Y-26491413D01*
X47253892Y-26475227D01*
X47252253Y-26458587D01*
X47238407Y-26353423D01*
X47231887Y-26320646D01*
X47229723Y-26312571D01*
X47225500Y-26280484D01*
X47225500Y-26070730D01*
X47222646Y-26040300D01*
X47222646Y-26040298D01*
X47177793Y-25912119D01*
X47177792Y-25912117D01*
X47109640Y-25819774D01*
X47097150Y-25802850D01*
X46987882Y-25722207D01*
X46987880Y-25722206D01*
X46859700Y-25677353D01*
X46829270Y-25674500D01*
X46829266Y-25674500D01*
X46170734Y-25674500D01*
X46170730Y-25674500D01*
X46140300Y-25677353D01*
X46140298Y-25677353D01*
X46012117Y-25722207D01*
X46003902Y-25726549D01*
X46002874Y-25724605D01*
X45949115Y-25744241D01*
X45941109Y-25744500D01*
X45798996Y-25744500D01*
X45744686Y-25750338D01*
X45693180Y-25761543D01*
X45693171Y-25761546D01*
X45666809Y-25768778D01*
X45666803Y-25768780D01*
X45666801Y-25768781D01*
X45666798Y-25768782D01*
X45659641Y-25771748D01*
X45658569Y-25769161D01*
X45603485Y-25782159D01*
X45537602Y-25758894D01*
X45536598Y-25758161D01*
X45487882Y-25722207D01*
X45487880Y-25722206D01*
X45359700Y-25677353D01*
X45329270Y-25674500D01*
X45329266Y-25674500D01*
X44670734Y-25674500D01*
X44670730Y-25674500D01*
X44640300Y-25677353D01*
X44640298Y-25677353D01*
X44512119Y-25722206D01*
X44512117Y-25722207D01*
X44402850Y-25802850D01*
X44322207Y-25912117D01*
X44322206Y-25912119D01*
X44277353Y-26040298D01*
X44277353Y-26040300D01*
X44274500Y-26070730D01*
X44274500Y-26393398D01*
X44254815Y-26460437D01*
X44202011Y-26506192D01*
X44132853Y-26516136D01*
X44069297Y-26487111D01*
X44039591Y-26448852D01*
X42594179Y-23558024D01*
X42582377Y-23536330D01*
X42577463Y-23527297D01*
X42568752Y-23512526D01*
X42549953Y-23483032D01*
X42549946Y-23483021D01*
X42486478Y-23390656D01*
X42467352Y-23366576D01*
X42443003Y-23335919D01*
X42438531Y-23331026D01*
X42419927Y-23310668D01*
X42419914Y-23310655D01*
X42369315Y-23262450D01*
X42289681Y-23196461D01*
X42289678Y-23196459D01*
X42232889Y-23155679D01*
X42232885Y-23155676D01*
X42203826Y-23137717D01*
X42203800Y-23137702D01*
X42197646Y-23134464D01*
X42141948Y-23105157D01*
X42141939Y-23105153D01*
X42141933Y-23105150D01*
X42047315Y-23063441D01*
X41981536Y-23039730D01*
X41981517Y-23039724D01*
X41948654Y-23030390D01*
X41948640Y-23030386D01*
X41948628Y-23030383D01*
X41948620Y-23030381D01*
X41948611Y-23030379D01*
X41880276Y-23015987D01*
X41880257Y-23015983D01*
X41880248Y-23015982D01*
X41880230Y-23015979D01*
X41880227Y-23015979D01*
X41769251Y-23000521D01*
X41769244Y-23000520D01*
X41769235Y-23000519D01*
X41734433Y-22996894D01*
X41734430Y-22996893D01*
X41734413Y-22996892D01*
X41717339Y-22995709D01*
X41691708Y-22994822D01*
X41682392Y-22994500D01*
X41682388Y-22994500D01*
X39629500Y-22994500D01*
X39562461Y-22974815D01*
X39516706Y-22922011D01*
X39505500Y-22870500D01*
X39505500Y-22624500D01*
X39525185Y-22557461D01*
X39577989Y-22511706D01*
X39629500Y-22500500D01*
X45437943Y-22500500D01*
X45504982Y-22520185D01*
G37*
G04 #@! TD.AperFunction*
G04 #@! TA.AperFunction,Conductor*
G36*
X39560139Y-26095185D02*
G01*
X39580781Y-26111819D01*
X39603789Y-26134827D01*
X39711572Y-26187518D01*
X39716375Y-26189866D01*
X39789364Y-26200500D01*
X39884425Y-26200500D01*
X39951464Y-26220185D01*
X39997219Y-26272989D01*
X40007163Y-26342146D01*
X39994500Y-26430221D01*
X39994500Y-27157982D01*
X39997397Y-27212030D01*
X39997397Y-27212031D01*
X40000229Y-27238364D01*
X40000232Y-27238391D01*
X40008885Y-27291787D01*
X40008885Y-27291789D01*
X40015352Y-27309126D01*
X40059168Y-27426599D01*
X40092653Y-27487922D01*
X40151895Y-27567059D01*
X40176740Y-27600248D01*
X40183584Y-27610400D01*
X40196339Y-27631500D01*
X40208603Y-27658750D01*
X40212338Y-27670734D01*
X40214385Y-27677301D01*
X40220000Y-27714193D01*
X40220000Y-28285805D01*
X40214383Y-28322702D01*
X40208602Y-28341250D01*
X40196339Y-28368498D01*
X40187419Y-28383255D01*
X40168980Y-28406791D01*
X40156791Y-28418980D01*
X40133258Y-28437417D01*
X40118502Y-28446337D01*
X40091250Y-28458603D01*
X40072701Y-28464384D01*
X40035805Y-28470000D01*
X39578269Y-28470000D01*
X39527654Y-28475893D01*
X39462139Y-28483521D01*
X39462136Y-28483521D01*
X39462133Y-28483522D01*
X39462128Y-28483522D01*
X39406701Y-28496606D01*
X39406694Y-28496608D01*
X39406687Y-28496610D01*
X39406685Y-28496611D01*
X39401082Y-28498642D01*
X39296754Y-28536455D01*
X39296741Y-28536461D01*
X38879331Y-28745166D01*
X38810566Y-28757541D01*
X38746027Y-28730773D01*
X38706205Y-28673363D01*
X38703743Y-28603537D01*
X38724105Y-28560626D01*
X38777793Y-28487882D01*
X38809893Y-28396145D01*
X38822646Y-28359701D01*
X38822646Y-28359699D01*
X38825500Y-28329269D01*
X38825500Y-27670730D01*
X38822646Y-27640300D01*
X38822646Y-27640298D01*
X38777793Y-27512119D01*
X38777792Y-27512117D01*
X38772912Y-27505505D01*
X38697150Y-27402850D01*
X38642994Y-27362881D01*
X38600866Y-27331789D01*
X38558615Y-27276141D01*
X38550500Y-27232019D01*
X38550500Y-26624529D01*
X38570185Y-26557490D01*
X38600867Y-26524759D01*
X38651878Y-26487111D01*
X38672150Y-26472150D01*
X38752793Y-26362882D01*
X38784248Y-26272989D01*
X38797646Y-26234701D01*
X38797646Y-26234699D01*
X38800500Y-26204269D01*
X38800500Y-26199500D01*
X38820185Y-26132461D01*
X38872989Y-26086706D01*
X38924500Y-26075500D01*
X39493100Y-26075500D01*
X39560139Y-26095185D01*
G37*
G04 #@! TD.AperFunction*
G04 #@! TA.AperFunction,Conductor*
G36*
X38943039Y-22520185D02*
G01*
X38988794Y-22572989D01*
X39000000Y-22624500D01*
X39000000Y-22870500D01*
X38980315Y-22937539D01*
X38927511Y-22983294D01*
X38876000Y-22994500D01*
X38008126Y-22994500D01*
X37975059Y-22995583D01*
X37958858Y-22996645D01*
X37925979Y-22999883D01*
X37905762Y-23002542D01*
X37905745Y-23002546D01*
X37820794Y-23013730D01*
X37755947Y-23026629D01*
X37724692Y-23035003D01*
X37724684Y-23035005D01*
X37662076Y-23056256D01*
X37662052Y-23056265D01*
X37571666Y-23093703D01*
X37571630Y-23093720D01*
X37512324Y-23122966D01*
X37484296Y-23139149D01*
X37429325Y-23175879D01*
X37429297Y-23175900D01*
X37351666Y-23235469D01*
X37301937Y-23279082D01*
X37279082Y-23301937D01*
X37235469Y-23351666D01*
X37175900Y-23429297D01*
X37175879Y-23429325D01*
X37139153Y-23484289D01*
X37122972Y-23512314D01*
X37093701Y-23571675D01*
X37089036Y-23582939D01*
X37089035Y-23582942D01*
X37056269Y-23662043D01*
X37035005Y-23724687D01*
X37035003Y-23724691D01*
X37026630Y-23755944D01*
X37013730Y-23820800D01*
X36999887Y-23925949D01*
X36996644Y-23958867D01*
X36995583Y-23975056D01*
X36994500Y-24008139D01*
X36994500Y-24491859D01*
X36995583Y-24524942D01*
X36996644Y-24541131D01*
X36999887Y-24574049D01*
X37013730Y-24679198D01*
X37026630Y-24744054D01*
X37035008Y-24775323D01*
X37056262Y-24837934D01*
X37056266Y-24837945D01*
X37093714Y-24928354D01*
X37122970Y-24987680D01*
X37139149Y-25015702D01*
X37175880Y-25070673D01*
X37235469Y-25148331D01*
X37270162Y-25187890D01*
X37299565Y-25251271D01*
X37290033Y-25320488D01*
X37283051Y-25333798D01*
X37206523Y-25460391D01*
X37155913Y-25622807D01*
X37149500Y-25693386D01*
X37149500Y-26206613D01*
X37155913Y-26277192D01*
X37155913Y-26277194D01*
X37155914Y-26277196D01*
X37206522Y-26439606D01*
X37294530Y-26585188D01*
X37414816Y-26705474D01*
X37489649Y-26750711D01*
X37536837Y-26802238D01*
X37549500Y-26856828D01*
X37549500Y-27108480D01*
X37529815Y-27175519D01*
X37513181Y-27196161D01*
X37419531Y-27289810D01*
X37419530Y-27289811D01*
X37331522Y-27435393D01*
X37280913Y-27597807D01*
X37274500Y-27668386D01*
X37274500Y-28331613D01*
X37280913Y-28402192D01*
X37331522Y-28564606D01*
X37419530Y-28710188D01*
X37539811Y-28830469D01*
X37539813Y-28830470D01*
X37539815Y-28830472D01*
X37685394Y-28918478D01*
X37847804Y-28969086D01*
X37918384Y-28975500D01*
X37918387Y-28975500D01*
X38127249Y-28975500D01*
X38194288Y-28995185D01*
X38240043Y-29047989D01*
X38249987Y-29117147D01*
X38222729Y-29178618D01*
X38196448Y-29210332D01*
X38155677Y-29267113D01*
X38137705Y-29296193D01*
X38105155Y-29358053D01*
X38063436Y-29452699D01*
X38039729Y-29518467D01*
X38030383Y-29551373D01*
X38030379Y-29551388D01*
X38015981Y-29619753D01*
X38015981Y-29619756D01*
X38000519Y-29730768D01*
X38000517Y-29730785D01*
X38000516Y-29730794D01*
X37996897Y-29765531D01*
X37995712Y-29782624D01*
X37994500Y-29817619D01*
X37994500Y-31491859D01*
X37995583Y-31524942D01*
X37996644Y-31541131D01*
X37999887Y-31574049D01*
X38013730Y-31679198D01*
X38026630Y-31744054D01*
X38035008Y-31775323D01*
X38056262Y-31837934D01*
X38056266Y-31837945D01*
X38093714Y-31928354D01*
X38122970Y-31987680D01*
X38139149Y-32015702D01*
X38175880Y-32070673D01*
X38175885Y-32070680D01*
X38235468Y-32148330D01*
X38262549Y-32179209D01*
X38279070Y-32198048D01*
X38301950Y-32220928D01*
X38301956Y-32220933D01*
X38351669Y-32264531D01*
X38429319Y-32324114D01*
X38451204Y-32338737D01*
X38496008Y-32392348D01*
X38504717Y-32461673D01*
X38474562Y-32524701D01*
X38447413Y-32547376D01*
X38431343Y-32557288D01*
X38307289Y-32681342D01*
X38215187Y-32830663D01*
X38215185Y-32830668D01*
X38199819Y-32877039D01*
X38160001Y-32997203D01*
X38160001Y-32997204D01*
X38160000Y-32997204D01*
X38149500Y-33099983D01*
X38149500Y-33850001D01*
X38149501Y-33850019D01*
X38160000Y-33952796D01*
X38160001Y-33952799D01*
X38215185Y-34119331D01*
X38215186Y-34119334D01*
X38307288Y-34268656D01*
X38431344Y-34392712D01*
X38580666Y-34484814D01*
X38747203Y-34539999D01*
X38849991Y-34550500D01*
X38875999Y-34550499D01*
X38943036Y-34570181D01*
X38988793Y-34622984D01*
X39000000Y-34674499D01*
X39000000Y-41375500D01*
X38980315Y-41442539D01*
X38927511Y-41488294D01*
X38876000Y-41499500D01*
X35006962Y-41499500D01*
X34993078Y-41498720D01*
X34980553Y-41497308D01*
X34902735Y-41488540D01*
X34875666Y-41482362D01*
X34796462Y-41454648D01*
X34771444Y-41442600D01*
X34700395Y-41397957D01*
X34678686Y-41380644D01*
X34619355Y-41321313D01*
X34602042Y-41299604D01*
X34557399Y-41228555D01*
X34545351Y-41203537D01*
X34517637Y-41124333D01*
X34511459Y-41097263D01*
X34501280Y-41006922D01*
X34500500Y-40993038D01*
X34500500Y-23006961D01*
X34501280Y-22993077D01*
X34507538Y-22937539D01*
X34511459Y-22902731D01*
X34517635Y-22875670D01*
X34545353Y-22796456D01*
X34557396Y-22771450D01*
X34602046Y-22700389D01*
X34619351Y-22678690D01*
X34678690Y-22619351D01*
X34700389Y-22602046D01*
X34771450Y-22557396D01*
X34796456Y-22545353D01*
X34875670Y-22517635D01*
X34902733Y-22511459D01*
X34965419Y-22504396D01*
X34993079Y-22501280D01*
X35006962Y-22500500D01*
X38876000Y-22500500D01*
X38943039Y-22520185D01*
G37*
G04 #@! TD.AperFunction*
G04 #@! TA.AperFunction,Conductor*
G36*
X46508059Y-26001061D02*
G01*
X46613223Y-26014906D01*
X46644491Y-26023284D01*
X46734918Y-26060740D01*
X46762952Y-26076925D01*
X46840602Y-26136509D01*
X46863491Y-26159398D01*
X46923074Y-26237048D01*
X46939259Y-26265081D01*
X46976715Y-26355508D01*
X46985093Y-26386775D01*
X46998939Y-26491939D01*
X47000000Y-26508125D01*
X47000000Y-27991874D01*
X46998939Y-28008060D01*
X46985093Y-28113224D01*
X46976715Y-28144491D01*
X46939259Y-28234918D01*
X46923076Y-28262949D01*
X46911095Y-28278563D01*
X46897343Y-28296485D01*
X46840918Y-28337688D01*
X46798967Y-28345000D01*
X46322012Y-28345000D01*
X46287413Y-28340075D01*
X46281996Y-28338501D01*
X46253471Y-28326156D01*
X46248894Y-28323449D01*
X46224337Y-28304400D01*
X46205533Y-28285596D01*
X46194533Y-28273002D01*
X46146701Y-28210141D01*
X46146693Y-28210130D01*
X46107000Y-28168936D01*
X46106998Y-28168935D01*
X46106994Y-28168930D01*
X46016283Y-28094432D01*
X46016282Y-28094431D01*
X45885413Y-28034664D01*
X45885408Y-28034662D01*
X45885407Y-28034662D01*
X45818368Y-28014977D01*
X45818370Y-28014977D01*
X45818365Y-28014976D01*
X45770261Y-28008060D01*
X45675948Y-27994500D01*
X45675946Y-27994500D01*
X44889051Y-27994500D01*
X44822012Y-27974815D01*
X44778142Y-27925954D01*
X44513091Y-27395851D01*
X44500000Y-27340397D01*
X44500000Y-27039535D01*
X44519685Y-26972496D01*
X44572489Y-26926741D01*
X44641647Y-26916797D01*
X44643399Y-26917062D01*
X44693515Y-26924999D01*
X44874999Y-26924999D01*
X45125000Y-26924999D01*
X45306479Y-26924999D01*
X45400149Y-26910164D01*
X45400155Y-26910162D01*
X45513041Y-26852643D01*
X45513050Y-26852636D01*
X45602636Y-26763050D01*
X45602639Y-26763046D01*
X45660166Y-26650144D01*
X45675000Y-26556486D01*
X45675000Y-26450000D01*
X45125000Y-26450000D01*
X45125000Y-26924999D01*
X44874999Y-26924999D01*
X44875000Y-26924998D01*
X44875000Y-26449000D01*
X44894685Y-26381961D01*
X44947489Y-26336206D01*
X44999000Y-26325000D01*
X45000000Y-26325000D01*
X45000000Y-26324000D01*
X45019685Y-26256961D01*
X45072489Y-26211206D01*
X45124000Y-26200000D01*
X45674999Y-26200000D01*
X45674999Y-26124000D01*
X45694684Y-26056961D01*
X45747488Y-26011206D01*
X45798999Y-26000000D01*
X46491874Y-26000000D01*
X46508059Y-26001061D01*
G37*
G04 #@! TD.AperFunction*
G04 #@! TA.AperFunction,Conductor*
G36*
X52508059Y-24001061D02*
G01*
X52613223Y-24014906D01*
X52644491Y-24023284D01*
X52734918Y-24060740D01*
X52762952Y-24076925D01*
X52840602Y-24136509D01*
X52863491Y-24159398D01*
X52923074Y-24237048D01*
X52939259Y-24265081D01*
X52976715Y-24355508D01*
X52985093Y-24386775D01*
X52998939Y-24491939D01*
X53000000Y-24508125D01*
X53000000Y-28991874D01*
X52998939Y-29008060D01*
X52985093Y-29113224D01*
X52976715Y-29144491D01*
X52939259Y-29234918D01*
X52923074Y-29262951D01*
X52863491Y-29340601D01*
X52840601Y-29363491D01*
X52762951Y-29423074D01*
X52734918Y-29439259D01*
X52644491Y-29476715D01*
X52613224Y-29485093D01*
X52519398Y-29497446D01*
X52508058Y-29498939D01*
X52491874Y-29500000D01*
X49992240Y-29500000D01*
X49925201Y-29480315D01*
X49919358Y-29476321D01*
X49913345Y-29471953D01*
X49913342Y-29471950D01*
X49817418Y-29423074D01*
X49800301Y-29414352D01*
X49706524Y-29399500D01*
X49248419Y-29399500D01*
X49181380Y-29379815D01*
X49172929Y-29373873D01*
X49159392Y-29363485D01*
X49136508Y-29340601D01*
X49076923Y-29262949D01*
X49060740Y-29234918D01*
X49023284Y-29144491D01*
X49014906Y-29113224D01*
X49002130Y-29016179D01*
X49002130Y-28983820D01*
X49014906Y-28886773D01*
X49023284Y-28855508D01*
X49060740Y-28765081D01*
X49076926Y-28737047D01*
X49136508Y-28659399D01*
X49159398Y-28636509D01*
X49172935Y-28626122D01*
X49238105Y-28600929D01*
X49248406Y-28600499D01*
X49706518Y-28600499D01*
X49800304Y-28585646D01*
X49913342Y-28528050D01*
X49941392Y-28500000D01*
X50000000Y-28500000D01*
X50000000Y-28441392D01*
X50003045Y-28438347D01*
X50003050Y-28438342D01*
X50060646Y-28325304D01*
X50060646Y-28325302D01*
X50060647Y-28325301D01*
X50075499Y-28231524D01*
X50075500Y-28231519D01*
X50075499Y-27868482D01*
X50060646Y-27774696D01*
X50013515Y-27682196D01*
X50000000Y-27625902D01*
X50000000Y-26968895D01*
X50019685Y-26901856D01*
X50049686Y-26869630D01*
X50089687Y-26839687D01*
X50171628Y-26730226D01*
X50219412Y-26602114D01*
X50221687Y-26580944D01*
X50225499Y-26545501D01*
X50225499Y-26545494D01*
X50225500Y-26545485D01*
X50225499Y-26004516D01*
X50219412Y-25947886D01*
X50171628Y-25819774D01*
X50089687Y-25710313D01*
X50089685Y-25710312D01*
X50089685Y-25710311D01*
X50016098Y-25655225D01*
X50000000Y-25634502D01*
X50000000Y-25250000D01*
X49500000Y-25250000D01*
X49483593Y-25247840D01*
X49386775Y-25235093D01*
X49355508Y-25226715D01*
X49265081Y-25189259D01*
X49237048Y-25173074D01*
X49159398Y-25113491D01*
X49136508Y-25090601D01*
X49076925Y-25012951D01*
X49060740Y-24984918D01*
X49023284Y-24894491D01*
X49014906Y-24863223D01*
X49001061Y-24758059D01*
X49000000Y-24741874D01*
X49000000Y-24508125D01*
X49001061Y-24491940D01*
X49014906Y-24386776D01*
X49023284Y-24355508D01*
X49060740Y-24265081D01*
X49076923Y-24237050D01*
X49136513Y-24159392D01*
X49159392Y-24136513D01*
X49237050Y-24076923D01*
X49265079Y-24060740D01*
X49355509Y-24023283D01*
X49386775Y-24014906D01*
X49491941Y-24001061D01*
X49508126Y-24000000D01*
X52491874Y-24000000D01*
X52508059Y-24001061D01*
G37*
G04 #@! TD.AperFunction*
G04 #@! TA.AperFunction,Conductor*
G36*
X41699497Y-23501185D02*
G01*
X41810510Y-23516648D01*
X41843414Y-23525994D01*
X41938048Y-23567710D01*
X41967143Y-23585691D01*
X42046775Y-23651678D01*
X42069852Y-23676930D01*
X42133330Y-23769310D01*
X42142041Y-23784081D01*
X44361797Y-28223596D01*
X44361801Y-28223603D01*
X44361803Y-28223607D01*
X44361804Y-28223609D01*
X44500000Y-28500000D01*
X45675948Y-28500000D01*
X45742987Y-28519685D01*
X45782680Y-28560879D01*
X45806917Y-28601862D01*
X45806923Y-28601870D01*
X45923129Y-28718076D01*
X45923133Y-28718079D01*
X45923135Y-28718081D01*
X46064602Y-28801744D01*
X46106224Y-28813836D01*
X46222426Y-28847597D01*
X46222429Y-28847597D01*
X46222431Y-28847598D01*
X46259306Y-28850500D01*
X46259314Y-28850500D01*
X46871573Y-28850500D01*
X46938612Y-28870185D01*
X46984367Y-28922989D01*
X46994512Y-28958314D01*
X46998939Y-28991939D01*
X47000000Y-29008125D01*
X47000000Y-31991874D01*
X46998939Y-32008060D01*
X46985093Y-32113224D01*
X46976715Y-32144491D01*
X46939259Y-32234918D01*
X46923074Y-32262951D01*
X46912343Y-32276936D01*
X46855915Y-32318139D01*
X46801371Y-32324809D01*
X46799629Y-32324631D01*
X46798345Y-32324500D01*
X46798344Y-32324500D01*
X46201662Y-32324500D01*
X46201644Y-32324501D01*
X46102292Y-32334650D01*
X46102289Y-32334651D01*
X45941305Y-32387996D01*
X45941294Y-32388001D01*
X45790809Y-32480823D01*
X45789249Y-32478294D01*
X45736939Y-32499405D01*
X45724808Y-32500000D01*
X45715233Y-32500000D01*
X45699048Y-32498939D01*
X45686024Y-32497224D01*
X45593882Y-32485093D01*
X45562616Y-32476715D01*
X45472191Y-32439260D01*
X45444157Y-32423075D01*
X45359996Y-32358496D01*
X45347801Y-32347801D01*
X45146451Y-32146450D01*
X45146445Y-32146445D01*
X45000000Y-32000000D01*
X44792893Y-32000000D01*
X44792886Y-32000000D01*
X39008126Y-32000000D01*
X38991941Y-31998939D01*
X38978917Y-31997224D01*
X38886775Y-31985093D01*
X38855508Y-31976715D01*
X38765081Y-31939259D01*
X38737048Y-31923074D01*
X38659398Y-31863491D01*
X38636508Y-31840601D01*
X38576925Y-31762951D01*
X38560740Y-31734918D01*
X38523284Y-31644491D01*
X38514906Y-31613223D01*
X38501061Y-31508059D01*
X38500000Y-31491874D01*
X38500000Y-29817608D01*
X38501186Y-29800502D01*
X38516648Y-29689490D01*
X38525994Y-29656587D01*
X38567711Y-29561947D01*
X38585688Y-29532859D01*
X38651681Y-29453220D01*
X38676925Y-29430151D01*
X38769310Y-29366668D01*
X38784075Y-29357961D01*
X39522817Y-28988590D01*
X39578271Y-28975500D01*
X40081613Y-28975500D01*
X40081616Y-28975500D01*
X40152196Y-28969086D01*
X40314606Y-28918478D01*
X40460185Y-28830472D01*
X40580472Y-28710185D01*
X40668478Y-28564606D01*
X40719086Y-28402196D01*
X40725500Y-28331616D01*
X40725500Y-27668384D01*
X40719086Y-27597804D01*
X40668478Y-27435394D01*
X40580472Y-27289815D01*
X40580470Y-27289813D01*
X40580469Y-27289811D01*
X40536319Y-27245661D01*
X40502834Y-27184338D01*
X40500000Y-27157980D01*
X40500000Y-26430222D01*
X40519685Y-26363183D01*
X40555682Y-26328498D01*
X40555257Y-26327950D01*
X40560355Y-26323995D01*
X40560881Y-26323489D01*
X40561090Y-26323364D01*
X40561420Y-26323170D01*
X40673170Y-26211420D01*
X40753618Y-26075390D01*
X40797709Y-25923627D01*
X40800500Y-25888163D01*
X40800499Y-25511838D01*
X40797709Y-25476373D01*
X40753618Y-25324610D01*
X40673170Y-25188580D01*
X40673168Y-25188578D01*
X40673165Y-25188574D01*
X40561425Y-25076834D01*
X40561416Y-25076827D01*
X40500000Y-25040505D01*
X40500000Y-25000000D01*
X40431508Y-25000000D01*
X40425390Y-24996382D01*
X40425385Y-24996380D01*
X40273633Y-24952292D01*
X40273620Y-24952290D01*
X40238163Y-24949500D01*
X39761849Y-24949500D01*
X39761824Y-24949501D01*
X39726376Y-24952290D01*
X39701137Y-24959622D01*
X39579099Y-24995077D01*
X39544509Y-25000000D01*
X38008126Y-25000000D01*
X37991941Y-24998939D01*
X37978917Y-24997224D01*
X37886775Y-24985093D01*
X37855508Y-24976715D01*
X37765081Y-24939259D01*
X37737048Y-24923074D01*
X37659398Y-24863491D01*
X37636508Y-24840601D01*
X37576925Y-24762951D01*
X37560740Y-24734918D01*
X37523284Y-24644491D01*
X37514906Y-24613223D01*
X37501061Y-24508059D01*
X37500000Y-24491874D01*
X37500000Y-24008125D01*
X37501061Y-23991940D01*
X37514906Y-23886776D01*
X37523284Y-23855508D01*
X37556056Y-23776390D01*
X37560740Y-23765079D01*
X37576923Y-23737050D01*
X37636513Y-23659392D01*
X37659392Y-23636513D01*
X37737050Y-23576923D01*
X37765079Y-23560740D01*
X37855509Y-23523283D01*
X37886775Y-23514906D01*
X37971654Y-23503731D01*
X37991941Y-23501061D01*
X38008126Y-23500000D01*
X41682392Y-23500000D01*
X41699497Y-23501185D01*
G37*
G04 #@! TD.AperFunction*
M02*
